<svg width="24" height="24" viewBox="0 0 24 24" fill="none" xmlns="http://www.w3.org/2000/svg">
<path d="M5.25 18.75H14.25V17.25H5.25V18.75ZM5.25 12.75H18.75V11.25H5.25V12.75ZM5.25 6.75H18.75V5.25H5.25V6.75ZM2.4225 24C1.7325 24 1.1565 23.769 0.6945 23.307C0.2315 22.844 0 22.2675 0 21.5775V2.4225C0 1.7325 0.2315 1.1565 0.6945 0.6945C1.1565 0.2315 1.7325 0 2.4225 0H21.5775C22.2675 0 22.8435 0.2315 23.3055 0.6945C23.7685 1.1565 24 1.7325 24 2.4225V21.5775C24 22.2675 23.769 22.8435 23.307 23.3055C22.844 23.7685 22.2675 24 21.5775 24H2.4225ZM2.4225 22.5H21.5775C21.8075 22.5 22.019 22.404 22.212 22.212C22.404 22.019 22.5 21.8075 22.5 21.5775V2.4225C22.5 2.1925 22.404 1.981 22.212 1.788C22.019 1.596 21.8075 1.5 21.5775 1.5H2.4225C2.1925 1.5 1.981 1.596 1.788 1.788C1.596 1.981 1.5 2.1925 1.5 2.4225V21.5775C1.5 21.8075 1.596 22.019 1.788 22.212C1.981 22.404 2.1925 22.5 2.4225 22.5Z" fill="black"/>
</svg>
