<svg width="23" height="27" viewBox="0 0 23 27" fill="none" xmlns="http://www.w3.org/2000/svg">
<path d="M5.42068 10.2836L10.8414 0L16.262 10.2867L5.42068 10.2836ZM18.0865 27C16.7103 27 15.5467 26.4529 14.5956 25.3588C13.6472 24.2616 13.173 22.9192 13.173 21.3316C13.173 19.7441 13.6472 18.4022 14.5956 17.306C15.5467 16.2098 16.7103 15.6617 18.0865 15.6617C19.4626 15.6617 20.6262 16.2098 21.5773 17.306C22.5258 18.4022 23 19.7441 23 21.3316C23 22.9192 22.5253 24.2616 21.576 25.3588C20.6258 26.4529 19.4626 27 18.0865 27ZM0 26.2402V16.4231H8.50974V26.2402H0ZM18.0865 25.4803C19.0929 25.4803 19.9439 25.0796 20.6394 24.2783C21.3358 23.4759 21.684 22.4942 21.684 21.3331C21.684 20.1711 21.3363 19.1884 20.6407 18.385C19.9452 17.5826 19.0942 17.1814 18.0878 17.1814C17.0805 17.1814 16.2287 17.5826 15.5322 18.385C14.8367 19.1874 14.4889 20.1691 14.4889 21.3301C14.4889 22.4921 14.8367 23.4749 15.5322 24.2783C16.2278 25.0807 17.0788 25.4819 18.0852 25.4819M1.31598 24.722H7.19376V17.9412H1.31598V24.722ZM7.71541 8.76546H13.9673L10.8414 2.98463L7.71541 8.76546Z" fill="black"/>
</svg>
