<svg width="28" height="30" viewBox="0 0 28 30" fill="none" xmlns="http://www.w3.org/2000/svg">
<path d="M4.63213 29.1254C2.7915 29.1254 1.29932 27.5942 1.29932 25.7036V11.9504C1.29932 10.9114 1.76025 9.92699 2.54932 9.27856L11.7165 1.75043C12.3022 1.2654 13.0388 1 13.7993 1C14.5598 1 15.2964 1.2654 15.8821 1.75043L25.0478 9.27856C25.8384 9.92699 26.2993 10.9114 26.2993 11.9504V25.7036C26.2993 27.5942 24.8071 29.1254 22.9665 29.1254H4.63213Z" stroke="black" stroke-width="1.5" stroke-linecap="round" stroke-linejoin="round"/>
<path d="M9.89307 29.125V20.5312C9.89307 19.7024 10.2223 18.9076 10.8084 18.3215C11.3944 17.7355 12.1893 17.4062 13.0181 17.4062H14.5806C15.4094 17.4062 16.2042 17.7355 16.7903 18.3215C17.3763 18.9076 17.7056 19.7024 17.7056 20.5312V29.125" stroke="black" stroke-width="1.5" stroke-linecap="round" stroke-linejoin="round"/>
</svg>
