<svg width="28" height="28" viewBox="0 0 28 28" fill="none" xmlns="http://www.w3.org/2000/svg">
<path d="M22.7007 20.8125C22.9874 20.8128 23.2632 20.9226 23.4717 21.1195C23.6802 21.3163 23.8057 21.5853 23.8225 21.8716C23.8393 22.1578 23.7462 22.4397 23.5621 22.6596C23.3781 22.8794 23.117 23.0208 22.8323 23.0546L22.7007 23.0625H4.70068C4.41394 23.0622 4.13815 22.9524 3.92964 22.7555C3.72114 22.5587 3.59567 22.2897 3.57886 22.0034C3.56206 21.7172 3.65519 21.4353 3.83923 21.2154C4.02327 20.9956 4.28433 20.8542 4.56906 20.8204L4.70068 20.8125H22.7007ZM22.7007 12.9375C22.9991 12.9375 23.2852 13.056 23.4962 13.267C23.7072 13.478 23.8257 13.7641 23.8257 14.0625C23.8257 14.3609 23.7072 14.647 23.4962 14.858C23.2852 15.069 22.9991 15.1875 22.7007 15.1875H4.70068C4.40232 15.1875 4.11617 15.069 3.90519 14.858C3.69421 14.647 3.57568 14.3609 3.57568 14.0625C3.57568 13.7641 3.69421 13.478 3.90519 13.267C4.11617 13.056 4.40232 12.9375 4.70068 12.9375H22.7007ZM22.7007 5.0625C22.9991 5.0625 23.2852 5.18103 23.4962 5.39201C23.7072 5.60298 23.8257 5.88913 23.8257 6.1875C23.8257 6.48587 23.7072 6.77202 23.4962 6.98299C23.2852 7.19397 22.9991 7.3125 22.7007 7.3125H4.70068C4.40232 7.3125 4.11617 7.19397 3.90519 6.98299C3.69421 6.77202 3.57568 6.48587 3.57568 6.1875C3.57568 5.88913 3.69421 5.60298 3.90519 5.39201C4.11617 5.18103 4.40232 5.0625 4.70068 5.0625H22.7007Z" fill="black"/>
</svg>
