<svg width="24" height="24" viewBox="0 0 24 24" fill="none" xmlns="http://www.w3.org/2000/svg">
<path d="M21.784 0.5625H2.61735C2.10925 0.56326 1.62218 0.765438 1.2629 1.12472C0.903622 1.484 0.701444 1.97107 0.700684 2.47917V21.6458C0.701444 22.1539 0.903622 22.641 1.2629 23.0003C1.62218 23.3596 2.10925 23.5617 2.61735 23.5625H21.784C22.2921 23.5617 22.7792 23.3596 23.1385 23.0003C23.4977 22.641 23.6999 22.1539 23.7007 21.6458V2.47917C23.6999 1.97107 23.4977 1.484 23.1385 1.12472C22.7792 0.765438 22.2921 0.56326 21.784 0.5625ZM14.1173 2.47917V6.3125H10.284V2.47917H14.1173ZM2.61735 21.6458V2.47917H8.36735V8.22917H16.034V2.47917H21.784L21.785 21.6458H2.61735Z" fill="black"/>
</svg>
