<svg id="Layer_1" data-name="Layer 1" xmlns="http://www.w3.org/2000/svg" viewBox="0 0 814.36 206.68"><defs><style>.cls-1{fill:#0f253b;}</style></defs><path class="cls-1" d="M444.74,560.4q-10.8,0-19.44.12t-18.48.12v39.84H374.9V504q0-7,3-10.44t11.64-3.48q3.6,0,10.44-.12t15.36-.12q8.52,0,17.76-.12t17.64,0q8.4.12,14.76.24t9.48.36q12.72,1.2,19,8t6.24,21.24q0,12.48-2.4,18.84a18.29,18.29,0,0,1-7.44,9.48,10.83,10.83,0,0,1-3.72,1.68,19.58,19.58,0,0,1-5.4.72V551h6q9.12,1.68,11,7.08a33.07,33.07,0,0,1,1.92,11.16V592.8a16.43,16.43,0,0,0,.72,5.52,10,10,0,0,0,1,2.16H478.34q-5.28,0-8.16-1.68t-2.88-7.44v-19q0-7.44-3.24-9.72t-11.4-2.28Zm-37.92-15.84q2.88,0,9,.12l13.2.24q7.08.12,13.2.12H451a17.49,17.49,0,0,0,11.52-4.2q5-4.2,5-15.48,0-7.92-2.88-12.48t-9.12-5.28q-4.08-.48-10.32-.6t-13-.12q-6.72,0-12.36.12t-8.52.36a11.7,11.7,0,0,0-2.52.72q-2,.72-2,3.84Z" transform="translate(-130.54 -448.04)"/><path class="cls-1" d="M588,602.16a163.37,163.37,0,0,1-30.12-2.4q-12.6-2.4-20.88-8.64t-12.24-17.4q-4-11.16-4-28.44,0-17.76,4.2-28.92a36.3,36.3,0,0,1,12.72-17.28q8.52-6.12,21.36-8.52a165.82,165.82,0,0,1,30.12-2.4,161.82,161.82,0,0,1,29.88,2.4Q631.7,493,640,499.2t12.24,17.4q4,11.16,4,28.68T652,574a37.44,37.44,0,0,1-12.6,17.4q-8.4,6.24-21.24,8.52A174.35,174.35,0,0,1,588,602.16Zm.48-17a66.66,66.66,0,0,0,15.24-1.56,22.33,22.33,0,0,0,10.92-5.88q4.32-4.32,6.48-12.12t2.16-20.28q0-12.72-2.16-20.52t-6.48-12.12a22.33,22.33,0,0,0-10.92-5.88,66.66,66.66,0,0,0-15.24-1.56A67.88,67.88,0,0,0,573,506.76a21.59,21.59,0,0,0-10.8,5.88q-4.2,4.32-6.36,12.12t-2.16,20.52q0,12.48,2.16,20.28t6.36,12.12a21.59,21.59,0,0,0,10.8,5.88A67.88,67.88,0,0,0,588.5,585.12Z" transform="translate(-130.54 -448.04)"/><path class="cls-1" d="M740.66,602.16a163.37,163.37,0,0,1-30.12-2.4q-12.6-2.4-20.88-8.64t-12.24-17.4q-4-11.16-4-28.44,0-17.76,4.2-28.92a36.3,36.3,0,0,1,12.72-17.28q8.5-6.12,21.36-8.52a165.74,165.74,0,0,1,30.12-2.4,161.82,161.82,0,0,1,29.88,2.4q12.6,2.4,20.88,8.64t12.24,17.4q4,11.16,4,28.68T804.62,574a37.44,37.44,0,0,1-12.6,17.4q-8.4,6.24-21.24,8.52A174.35,174.35,0,0,1,740.66,602.16Zm.48-17a66.66,66.66,0,0,0,15.24-1.56,22.33,22.33,0,0,0,10.92-5.88q4.32-4.32,6.48-12.12t2.16-20.28q0-12.72-2.16-20.52t-6.48-12.12a22.33,22.33,0,0,0-10.92-5.88,66.66,66.66,0,0,0-15.24-1.56,67.88,67.88,0,0,0-15.48,1.56,21.55,21.55,0,0,0-10.8,5.88q-4.2,4.32-6.36,12.12t-2.16,20.52q0,12.48,2.16,20.28t6.36,12.12a21.55,21.55,0,0,0,10.8,5.88A67.88,67.88,0,0,0,741.14,585.12Z" transform="translate(-130.54 -448.04)"/><path class="cls-1" d="M820.58,490.08H944.9v17.28H898.82V589.2q0,6.72-1.92,9T888,600.48H866.66V507.36H820.58Z" transform="translate(-130.54 -448.04)"/><path class="cls-1" d="M292.28,588.72l-.39-.23a16.22,16.22,0,0,1-7.25-19.65,81.73,81.73,0,0,0-24.71-91.64,16.24,16.24,0,0,1-3.62-20.63l.23-.4a16.12,16.12,0,0,1,24.1-4.55A114.67,114.67,0,0,1,315.4,580.54,16.13,16.13,0,0,1,292.28,588.72Z" transform="translate(-130.54 -448.04)"/><path class="cls-1" d="M279.76,654.72a114.81,114.81,0,0,1-88.49-41.55,16.08,16.08,0,0,1,4.45-24l.54-.32A16.26,16.26,0,0,1,217,592.6a81.85,81.85,0,0,0,91.33,24,16.26,16.26,0,0,1,19.87,6.88l.31.54a16.19,16.19,0,0,1-8.36,23.29A113.83,113.83,0,0,1,279.76,654.72Z" transform="translate(-130.54 -448.04)"/><path class="cls-1" d="M243.81,505.09v.64a16.28,16.28,0,0,1-13.72,16,81.83,81.83,0,0,0-66.8,66.69,16.25,16.25,0,0,1-16,13.68h-.64a16.11,16.11,0,0,1-15.94-18.63,114.69,114.69,0,0,1,94.45-94.3A16.12,16.12,0,0,1,243.81,505.09Z" transform="translate(-130.54 -448.04)"/></svg>