<svg xmlns="http://www.w3.org/2000/svg" width="84" height="75" fill="none"><g clip-path="url(#a)"><mask id="b" width="84" height="75" x="0" y="0" maskUnits="userSpaceOnUse" style="mask-type:luminance"><path fill="#fff" d="M84 0H0v75h84V0Z"/></mask><g mask="url(#b)"><path fill="#FF5722" d="m49.58 9.816.492 6.577 2.207.73 2.206-.73.492-6.577H49.58Z"/><path fill="#FAFAFA" d="M53.911 11.967H51.324l.062.826h2.463l-.185 2.477-1.385.458h-.002l-1.384-.458-.097-1.295h.678l.051.672.753.242.754-.242.079-1.047h-2.342l-.184-2.439h3.386l-.06.806Z"/><path fill="#2196F3" d="m55.697 17.242.468 6.256 2.1.695 2.098-.695.468-6.256h-5.134Z"/><path fill="#FAFAFA" d="m59.832 19.288-.06.786-.177 2.356-1.33.436h-.002l-1.329-.436-.093-1.232h.651l.049.639.723.231.724-.232.099-1.064-2.277.007-.065-.728 2.396-.033.049-.78-2.509.009-.042-.726h3.251l-.058.767Z"/><path fill="#0EE0B8" d="M7.158 16.5h-3.88c-.169 0-.348.189-.348.389v4.714l1.97 2.204h2.258c.17 0 .349-.189.349-.389v-6.529c0-.2-.18-.389-.349-.389Z"/><path fill="#7C4EA8" d="M7.158 16.5h-3.88c-.169 0-.348.189-.348.389v4.714l1.97 2.204h2.258c.17 0 .349-.189.349-.389v-6.529c0-.2-.18-.389-.349-.389Z"/><path fill="#653E93" d="M7.507 22.157v-5.268c0-.2-.18-.389-.349-.389h-3.88c-.169 0-.318.165-.318.354"/><path fill="#553687" d="M7.507 22.157v-5.268c0-.2-.18-.389-.349-.389H4.721"/><path fill="#653E93" d="M4.622 21.686v1.756c0 .023.02.047.02.07l.238.271c.02 0 .04.024.06.024h1.562l-1.84-2.121h-.04Z"/><path fill="#553687" d="M4.622 21.673v1.768c0 .023.02.047.02.07l.238.271c.02 0 .04.024.06.024h.796l-.906-1.78-.208-.353Z"/><path fill="#fff" d="M4.9 23.806h.02v-1.85c0-.2-.15-.389-.318-.389l-1.672.024 1.97 2.215Z"/><path fill="#ECE4F9" d="m2.93 21.59 1.97 2.216h.02v-1.885"/><path fill="#C588FF" d="M3.13 21.591V16.89c0-.2.118-.389.278-.389h-.13c-.169 0-.348.189-.348.389v4.714l.2-.012Z"/><path fill="#fff" d="m4.83 19.741-.179-.59c-.04-.14-.07-.235-.09-.353h-.01c-.029.118-.059.224-.089.354l-.179.589h.547Zm-.587.236-.189.707h-.238l.616-2.122h.279l.617 2.122h-.249l-.189-.707h-.647Z"/><path fill="#fff" d="M4.363 19.681h.398l-.15-.506c-.02-.071-.04-.13-.05-.177-.01.047-.02.082-.03.13l-.01.047-.158.506Zm.467.118h-.547c-.02 0-.03-.012-.04-.023-.01-.012-.01-.035-.01-.06l.19-.636c.03-.106.06-.2.079-.306.01-.024.03-.047.05-.047h.01c.02 0 .04.023.05.047.03.118.05.212.089.354l.179.577c.01.024 0 .035-.01.059-.01.024-.02.035-.04.035Zm.279.825h.14l-.578-2.003h-.209l-.577 2.003h.14l.179-.66c.01-.023.03-.047.05-.047h.636c.02 0 .04.012.05.036l.169.671Zm.219.118c-.01 0-.01 0 0 0h-.249a.054.054 0 0 1-.05-.035l-.189-.672h-.567l-.179.66c-.01.024-.03.047-.05.047h-.238c-.02 0-.03-.012-.04-.023-.01-.012-.01-.036-.01-.06l.617-2.12a.054.054 0 0 1 .05-.036H4.7c.02 0 .04.012.05.035l.607 2.11c.01.012.01.024.01.035a.046.046 0 0 1-.04.06ZM6.372 19.741c0-.236-.06-.448-.328-.448-.239 0-.338.212-.358.448h.686Zm-.696.236c.01.353.209.506.448.506.169 0 .268-.047.358-.094l.04.2a.877.877 0 0 1-.428.095c-.398 0-.637-.307-.637-.778 0-.46.229-.825.607-.825.428 0 .537.46.537.742 0 .06-.01.036-.01.154h-.915Z"/><path fill="#fff" d="M5.736 19.681h.577c-.01-.117-.03-.2-.08-.259-.04-.059-.11-.082-.199-.082-.209.012-.278.212-.298.341Zm.636.118h-.686c-.01 0-.03-.011-.04-.023-.01-.012-.01-.024-.01-.047.03-.319.18-.507.408-.507.12 0 .209.035.269.118.07.082.11.224.11.4 0 .036-.03.06-.05.06Zm-.308-.66c-.328 0-.557.319-.557.766 0 .436.229.72.587.72a.824.824 0 0 0 .368-.071l-.02-.083a.76.76 0 0 1-.328.07c-.299 0-.488-.223-.498-.565 0-.012 0-.035.01-.047.01-.012.02-.012.04-.012h.866v-.082c.01-.083 0-.696-.468-.696Zm.03 1.603c-.418 0-.687-.33-.687-.837 0-.518.269-.884.657-.884.458 0 .587.507.587.802v.059c0 .012 0 .035-.01.094 0 .036-.02.06-.05.06h-.855c.02.246.169.388.388.388.159 0 .248-.035.338-.082a.027.027 0 0 1 .04 0l.03.035.04.2c.01.024-.01.06-.03.07-.08.048-.23.095-.448.095Z"/><path fill="#000" d="M4.85 19.918h-.408l.16-.566c.01-.036.02-.059.02-.083.01-.023.01-.047.02-.07.01.023.02.058.03.082.01.024.02.047.02.082l.158.555Zm-.01-1.262a.054.054 0 0 0-.05-.035h-.278c-.02 0-.04.012-.05.035l-.617 2.24c0 .023 0 .035.01.047.01.012.02.023.04.023h.239c.02 0 .04-.011.05-.047l.179-.66h.567l.179.672c.01.024.03.035.05.035h.248c.03 0 .05-.023.05-.059 0-.011 0-.023-.01-.035l-.607-2.216ZM6.124 19.588c.09 0 .159.023.199.082.05.06.07.142.08.26h-.578c.02-.142.09-.342.299-.342Zm.02-.354c-.388 0-.657.366-.657.884 0 .507.269.825.686.825a.948.948 0 0 0 .448-.106c.02-.012.03-.035.03-.07l-.04-.19c0-.01-.01-.035-.03-.035a.027.027 0 0 0-.04 0c-.089.048-.178.06-.338.06-.189 0-.368-.06-.388-.448h.856c.06 0 .06-.083.06-.165 0-.342-.15-.755-.587-.755Z" opacity=".1"/><path fill="#EDF4FC" d="M34.119 8.22V3.409c0-.224-.155-.408-.344-.408h-2.802l-1.407 1.667V8.22h4.553Z"/><path fill="#FC657E" d="M29.566 8.22v1.705c0 .224.155.408.344.408h3.865c.189 0 .344-.184.344-.408V8.22h-4.553Z"/><path fill="#000" d="M31.716 8.744h-.114c-.007 0-.014.008-.014.017v.776c0 .085-.036.139-.112.139-.089 0-.123-.073-.123-.18 0-.008-.007-.016-.015-.016h-.113c-.008 0-.014.008-.014.017 0 .214.105.335.27.335.16 0 .249-.118.249-.295V8.76c0-.01-.006-.017-.014-.017ZM32.022 9.105c-.043-.061-.04-.232.114-.232.092 0 .146.067.159.143.001.008.007.014.014.014h.122c.008 0 .015-.01.014-.02-.017-.155-.122-.279-.309-.279-.1 0-.2.038-.252.138a.353.353 0 0 0 .003.315c.122.198.428.13.428.355 0 .086-.045.152-.141.152-.103 0-.165-.08-.173-.169 0-.008-.007-.015-.014-.015h-.121c-.008 0-.015.009-.014.018.014.19.154.307.325.307.187 0 .287-.137.287-.298 0-.345-.337-.282-.442-.429Z"/><path fill="#000" d="M33.775 10.415H29.91c-.228 0-.414-.22-.414-.49V8.22c0-.045.031-.082.07-.082.038 0 .07.037.07.082v1.704c0 .18.123.326.274.326h3.865c.151 0 .274-.146.274-.326V8.22c0-.045.032-.082.07-.082.038 0 .07.037.07.082v1.704c0 .271-.186.491-.414.491Z"/><path fill="#FC657E" d="M29.566 4.667h1.062c.19 0 .345-.184.345-.408V3l-1.407 1.667Z"/><path fill="#F5C84C" d="M34.855 6.949c-.115.025-.207.131-.229.266 0 .006-.009.006-.01 0-.022-.135-.113-.24-.229-.266-.006-.002-.006-.01 0-.012.116-.026.207-.132.23-.266 0-.007.008-.007.01 0 .021.134.113.24.228.266.006.001.006.01 0 .012Z"/><path fill="#FC657E" d="M31.938 10.874c-.081.018-.145.092-.16.187-.001.004-.007.004-.008 0-.015-.095-.08-.169-.16-.187-.005 0-.005-.007 0-.008.08-.018.145-.092.16-.187.001-.004.007-.004.008 0 .015.095.079.169.16.187.004 0 .004.007 0 .008ZM30.67 2.599c.052 0 .094.05.094.111 0 .062-.042.112-.094.112s-.094-.05-.094-.112c0-.061.042-.111.094-.111Z"/><path fill="#87D147" d="M34.494 5.872c.052 0 .095.05.095.112 0 .061-.043.111-.095.111-.052 0-.094-.05-.094-.111 0-.062.042-.112.094-.112Z"/><path fill="#70D6F9" d="M30.125 2.955h-.051v-.06c0-.046-.031-.083-.07-.083-.037 0-.068.037-.068.082v.06h-.05c-.04 0-.07.037-.07.082 0 .045.03.082.07.082h.05v.06c0 .046.03.082.069.082.038 0 .069-.036.069-.082v-.06h.05c.039 0 .07-.037.07-.082 0-.045-.031-.081-.07-.081Z"/><path fill="#F5C84C" d="M31.044 10.61c.052 0 .094.05.094.111 0 .062-.042.112-.094.112-.053 0-.095-.05-.095-.112s.042-.112.095-.112Z"/><path fill="#000" d="M29.636 8.138h4.413v-4.73c0-.18-.123-.326-.274-.326h-2.773l-1.366 1.619v3.437Zm4.483.165h-4.553c-.039 0-.07-.037-.07-.083V4.666a.09.09 0 0 1 .02-.058l1.407-1.667a.065.065 0 0 1 .05-.024h2.802c.228 0 .414.22.414.49V8.22c0 .046-.032.083-.07.083Z"/><path fill="#000" d="M30.628 4.75h-1.042c-.038 0-.07-.038-.07-.084 0-.045.032-.082.07-.082h1.042c.152 0 .275-.146.275-.326V3.033c0-.046.031-.083.07-.083.038 0 .07.037.07.083v1.225c0 .271-.186.491-.415.491Z"/><path fill="#FC657E" d="m32.998 6.106-.597-.531c-.06-.053-.144-.039-.189.032a.18.18 0 0 0 .027.223l.453.404-.453.404a.18.18 0 0 0-.027.223c.045.071.13.085.189.032l.597-.531a.178.178 0 0 0 0-.256ZM31.47 6.638l-.453-.404.454-.404a.18.18 0 0 0 .027-.223c-.045-.07-.13-.085-.19-.032l-.596.531a.17.17 0 0 0-.054.128c0 .05.02.097.054.128l.597.531c.06.053.144.039.189-.032a.18.18 0 0 0-.027-.223ZM32.108 5.37c-.07-.03-.147.013-.172.097l-.427 1.428c-.025.084.012.175.082.204.07.03.147-.014.172-.097l.427-1.429c.025-.083-.012-.174-.082-.203Z"/><path fill="#000" d="m32.32 5.625-.01.001a.063.063 0 0 0-.042.03.087.087 0 0 0 .013.108l.453.404c.018.015.028.04.028.066 0 .026-.01.05-.028.066l-.453.404a.087.087 0 0 0-.013.107c.021.034.062.041.09.016l.598-.532a.082.082 0 0 0 .026-.061.082.082 0 0 0-.026-.062l-.597-.531a.058.058 0 0 0-.04-.016Zm0 1.382a.196.196 0 0 1-.164-.096.273.273 0 0 1 .04-.34l.38-.337-.38-.338a.274.274 0 0 1-.04-.34.2.2 0 0 1 .135-.094.18.18 0 0 1 .152.047l.597.531a.257.257 0 0 1 .081.194c0 .077-.03.147-.081.194l-.597.53a.184.184 0 0 1-.123.05ZM31.39 5.626a.057.057 0 0 0-.039.016l-.597.531a.08.08 0 0 0-.026.062c0 .024.01.046.026.061l.597.532c.014.012.03.017.048.014a.063.063 0 0 0 .043-.03.088.088 0 0 0 .012-.057.08.08 0 0 0-.025-.05l-.453-.404a.088.088 0 0 1-.028-.066c0-.026.01-.05.027-.066l.454-.404a.087.087 0 0 0 .013-.108.063.063 0 0 0-.052-.03Zm0 1.383a.183.183 0 0 1-.123-.05l-.597-.53a.258.258 0 0 1-.082-.194c0-.077.03-.148.082-.194l.597-.532a.18.18 0 0 1 .152-.046.2.2 0 0 1 .135.095.275.275 0 0 1-.041.34l-.38.337.38.337a.275.275 0 0 1 .04.34.2.2 0 0 1-.163.097Z"/><path fill="#000" d="M32.063 5.443c-.027 0-.052.02-.061.051l-.428 1.429c-.012.04.006.084.04.098.034.014.071-.007.083-.047l.427-1.428c.012-.04-.006-.085-.04-.099a.057.057 0 0 0-.02-.004Zm-.427 1.748a.177.177 0 0 1-.068-.014c-.107-.045-.163-.184-.125-.31l.427-1.428c.038-.126.155-.192.261-.148.107.045.162.184.125.31l-.427 1.428c-.03.1-.11.162-.193.162Z"/><path fill="#FFD9F3" d="M43.637 6.664c0 .323-.22.585-.493.585.273 0 .493-.262.493-.585Zm.617-2.046H41.17c-.273 0-.493.262-.493.585v.146h-.74c-.273 0-.494.262-.494.584v.731c0 .323.22.585.493.585h.74v3.507c0 .323.221.585.494.585h.74c0 .322.221.584.494.584h1.48c.273 0 .494-.262.494-.585h.74c.272 0 .493-.261.493-.584V6.08l-1.233-1.462h-.124Z"/><path fill="#FF3FC2" d="M43.637 5.934v.73c0 .324-.22.585-.493.585h-3.208c-.272 0-.493-.261-.493-.584v-.73c0-.324.22-.585.493-.585h3.208c.273 0 .493.261.493.584ZM43.884 11.925h-1.48c-.273 0-.494-.261-.494-.584V9.879c0-.322.221-.584.494-.584h1.48c.273 0 .494.262.494.584v1.462c0 .323-.221.584-.494.584Z"/><path fill="#FF8CDA" d="M44.378 4.618h-.124v1.023c0 .323.221.585.494.585h.863V6.08l-1.233-1.462Z"/><path fill="#fff" d="M43.85 11.342h-.28l-.056-.108-.37-.767-.28.582.28.002h.07l.148.29h-.924l.706-1.463.706 1.464ZM39.994 6.46v.297h-.125V6.46h.125ZM40.444 6.81l.065-.186c.015-.043.03-.087.045-.136.018.051.033.094.05.136l.07.185h.276l-.233-.51.22-.509h-.267l-.051.17a3.45 3.45 0 0 0-.043.136l-.014-.04-.035-.095-.06-.17h-.276l.22.495-.233.524h.266ZM41.267 6.57v-.538c.105 0 .203.032.203.264 0 .242-.108.274-.203.274Zm.455-.274c0-.33-.153-.505-.442-.505h-.26v1.02h.273c.272 0 .429-.188.429-.515Z"/><path fill="#5ADAFD" d="M34.88 17.034c0 1.204-.492 2.272-1.25 2.937a2.89 2.89 0 0 1-1.076.605 2.633 2.633 0 0 1-1.518 0 2.888 2.888 0 0 1-1.076-.605c-.758-.665-1.25-1.733-1.25-2.937 0-2.017 1.382-3.653 3.085-3.653s3.084 1.636 3.084 3.653Z"/><path fill="#F2F2F2" d="M33.35 19.917c-.036.188-.104.316-.2.382-.096.066-.224.07-.38.014-.168-.06-.364-.194-.568-.385a3.882 3.882 0 0 1-.407-.447 6.225 6.225 0 0 1-.338-.47 7.809 7.809 0 0 1-.514-.909 8.895 8.895 0 0 1-.408-.982 7.175 7.175 0 0 1-.246-.907 4.738 4.738 0 0 1-.051-.316 2.563 2.563 0 0 1 .002-.776c.037-.187.104-.316.2-.382a.317.317 0 0 1 .183-.053.58.58 0 0 1 .197.039c.168.06.365.194.568.386a4.706 4.706 0 0 1 .407.447c.115.143.228.3.339.469a7.753 7.753 0 0 1 .514.91 8.95 8.95 0 0 1 .407.981 7.227 7.227 0 0 1 .247.907c.02.108.038.213.05.316.039.304.038.573-.002.776Zm.283-.826a5.226 5.226 0 0 0-.13-.679 7.945 7.945 0 0 0-.447-1.292 9.384 9.384 0 0 0-.549-1.062 6.95 6.95 0 0 0-.51-.737 5.11 5.11 0 0 0-.432-.473c-.503-.473-.952-.615-1.266-.4-.315.216-.436.747-.342 1.499a6.055 6.055 0 0 0 .13.68 7.894 7.894 0 0 0 .448 1.291 9.537 9.537 0 0 0 .548 1.062c.164.27.336.519.511.738a5.106 5.106 0 0 0 .432.473c.184.173.362.302.528.385a2.89 2.89 0 0 0 1.076-.605 2.95 2.95 0 0 0 .003-.88Z"/><path fill="#F2F2F2" d="M34.326 17.916a1.79 1.79 0 0 1-.567.39 3.17 3.17 0 0 1-.53.194 5.129 5.129 0 0 1-.879.159 5.913 5.913 0 0 1-1.477-.046 4.656 4.656 0 0 1-.786-.2 3.17 3.17 0 0 1-.256-.107 1.79 1.79 0 0 1-.566-.39c-.12-.132-.18-.265-.18-.397 0-.131.06-.265.18-.396.128-.143.324-.277.566-.39a3.207 3.207 0 0 1 .53-.195 5.19 5.19 0 0 1 .879-.16 5.948 5.948 0 0 1 1.477.048 4.655 4.655 0 0 1 .786.2c.09.033.175.068.256.106.242.114.438.248.567.39.118.132.179.265.179.397s-.06.265-.18.397Zm-.463-1.496a3.463 3.463 0 0 0-.561-.206 5.11 5.11 0 0 0-.795-.155 5.835 5.835 0 0 0-.712-.041 6.213 6.213 0 0 0-.712.04 5.11 5.11 0 0 0-.795.156 3.429 3.429 0 0 0-.562.207c-.595.278-.924.668-.924 1.098 0 .43.329.82.925 1.1a3.495 3.495 0 0 0 .561.206c.248.07.515.122.795.155a5.977 5.977 0 0 0 1.05.032c.127-.007.252-.018.374-.032.28-.033.547-.085.795-.155a3.972 3.972 0 0 0 .561-.206c.597-.28.925-.67.925-1.1 0-.43-.328-.82-.925-1.099Z"/><path fill="#F2F2F2" d="M33.23 16.538a7.184 7.184 0 0 1-.323.981 8.898 8.898 0 0 1-.773 1.493 6.147 6.147 0 0 1-.54.706 3.701 3.701 0 0 1-.206.21c-.203.191-.4.324-.568.385-.156.056-.284.052-.38-.014-.096-.066-.163-.194-.2-.382a2.56 2.56 0 0 1-.002-.776 5.955 5.955 0 0 1 .123-.64 7.215 7.215 0 0 1 .323-.982 8.896 8.896 0 0 1 .773-1.492 6.22 6.22 0 0 1 .338-.47 4.82 4.82 0 0 1 .407-.446c.204-.192.4-.325.569-.386a.58.58 0 0 1 .196-.04c.07 0 .131.019.183.054.096.066.164.195.2.382.04.204.04.472.002.777a5.884 5.884 0 0 1-.123.64Zm.062-2.09c-.315-.215-.764-.073-1.266.4a5.052 5.052 0 0 0-.432.473 6.965 6.965 0 0 0-.51.737 8.569 8.569 0 0 0-.387.71 9.622 9.622 0 0 0-.326.751 7.908 7.908 0 0 0-.284.893 6.282 6.282 0 0 0-.13.68 2.95 2.95 0 0 0 .003.88 2.89 2.89 0 0 0 1.076.604 2.27 2.27 0 0 0 .529-.385 4.158 4.158 0 0 0 .431-.473c.175-.22.347-.468.511-.738a8.563 8.563 0 0 0 .386-.71 9.147 9.147 0 0 0 .326-.751 7.92 7.92 0 0 0 .357-1.218 5.25 5.25 0 0 0 .057-.354c.094-.752-.027-1.283-.341-1.499Z"/><path fill="#F2F2F2" d="M31.795 16.852c.31 0 .563.3.563.667 0 .368-.252.666-.563.666-.31 0-.562-.298-.562-.666 0-.368.252-.666.562-.666Z"/><path fill="#0EE0B8" d="M22.402 5.658h-3.69c-.161 0-.332.18-.332.37v4.484l1.874 2.097h2.148c.161 0 .332-.18.332-.37v-6.21c0-.191-.17-.37-.332-.37Z"/><path fill="#1080DD" d="M22.402 5.658h-3.69c-.161 0-.332.18-.332.37v4.484l1.874 2.097h2.148c.161 0 .332-.18.332-.37v-6.21c0-.191-.17-.37-.332-.37Z"/><path fill="#0070CC" d="M22.733 11.04V6.027c0-.19-.17-.37-.33-.37H18.71c-.16 0-.302.157-.302.337"/><path fill="#0667B7" d="M22.733 11.04V6.027c0-.19-.17-.37-.33-.37h-2.32"/><path fill="#0070CC" d="M19.989 10.59v1.671c0 .023.019.045.019.067l.227.258c.02 0 .038.023.057.023h1.486l-1.751-2.018h-.038Z"/><path fill="#0667B7" d="M19.989 10.58v1.68c0 .023.019.045.019.068l.227.258c.02 0 .038.022.057.022h.757l-.861-1.693-.199-.336Z"/><path fill="#fff" d="M20.254 12.608h.019v-1.76c0-.19-.142-.37-.303-.37l-1.59.023 1.874 2.107Z"/><path fill="#D2F3FF" d="m18.38 10.501 1.874 2.108h.019v-1.794"/><path fill="#3DB8FC" d="M18.57 10.501V6.028c0-.19.113-.37.264-.37h-.123c-.16 0-.33.18-.33.37v4.484l.188-.01Z"/><path fill="#fff" d="M19.847 8.517c0 .01.095.022.17.022.265 0 .426-.157.426-.437 0-.27-.151-.404-.397-.404-.095 0-.199.012-.199.023v.796Zm-.284-.987c.095-.022.265-.045.445-.045.218 0 .388.056.492.168.095.101.151.247.151.427 0 .179-.047.325-.132.437-.114.145-.293.224-.511.224-.066 0-.16 0-.16-.023v.797h-.285V7.53Z"/><path fill="#fff" d="M19.894 8.472c.029 0 .067.011.123.011.17 0 .379-.067.379-.38 0-.225-.114-.348-.35-.348-.066 0-.123 0-.152.011v.706Zm.123.124c-.17 0-.217-.012-.217-.079v-.785c0-.044.01-.078.246-.078.284 0 .445.168.445.46 0 .291-.18.482-.474.482Zm-.407.874h.19v-.74c0-.045.047-.067.075-.045.02 0 .057.012.133.012.208 0 .37-.068.473-.202a.622.622 0 0 0 .114-.393.511.511 0 0 0-.142-.38c-.095-.102-.256-.158-.454-.158-.17 0-.313.011-.398.034V9.47h.01Zm.237.112h-.284c-.028 0-.047-.022-.047-.056V7.531c0-.023.019-.045.038-.056.113-.023.284-.045.454-.045.227 0 .407.067.52.18.114.111.17.28.17.47 0 .202-.047.359-.141.47-.123.158-.312.236-.54.236h-.113v.729c-.01.045-.029.067-.057.067ZM20.86 9.268a.48.48 0 0 0 .293.101c.16 0 .237-.1.237-.213 0-.123-.067-.19-.227-.269-.218-.09-.322-.235-.322-.403 0-.236.16-.426.426-.426.123 0 .236.044.303.09l-.057.19a.457.457 0 0 0-.256-.09c-.132 0-.208.09-.208.202 0 .123.076.18.236.247.218.1.322.224.322.437 0 .258-.17.437-.463.437a.7.7 0 0 1-.35-.1l.066-.203Z"/><path fill="#fff" d="M20.86 9.447c.075.045.18.067.293.067.256 0 .416-.145.416-.38 0-.18-.085-.292-.293-.393-.151-.067-.265-.135-.265-.303 0-.145.104-.258.256-.258.094 0 .17.034.227.056l.028-.09a.581.581 0 0 0-.246-.055c-.227 0-.378.157-.378.37 0 .157.094.28.293.358.16.068.265.146.265.325 0 .124-.076.27-.284.27a.482.482 0 0 1-.265-.079l-.047.112Zm.284.18a.574.574 0 0 1-.37-.113c-.018-.01-.028-.045-.018-.067l.056-.202c0-.01.02-.033.029-.033.01-.011.028 0 .038.011.066.045.17.1.264.1.123 0 .19-.055.19-.156 0-.09-.028-.146-.199-.213-.293-.123-.36-.325-.36-.47 0-.281.2-.483.474-.483.113 0 .236.034.331.1.019.012.028.046.019.068l-.047.18c0 .01-.02.033-.029.033-.01.011-.028 0-.038 0a.34.34 0 0 0-.227-.078c-.095 0-.16.056-.16.145 0 .079.047.124.207.191.247.112.35.258.35.493 0 .303-.198.493-.51.493Z"/><path fill="#000" d="M20.103 8.685c-.048 0-.095 0-.114-.011v-.706c.028 0 .085-.011.142-.011.227 0 .34.112.34.347.01.314-.198.381-.368.381Zm.51-.863c-.113-.123-.293-.18-.52-.18-.198 0-.36.023-.445.045-.018 0-.038.034-.038.056V9.75c0 .034.02.056.048.056h.284c.028 0 .047-.022.047-.056V9h.114a.67.67 0 0 0 .54-.236c.094-.113.141-.28.141-.471a.692.692 0 0 0-.17-.471ZM21.38 8.842c-.16-.068-.208-.113-.208-.19 0-.09.066-.147.16-.147a.34.34 0 0 1 .228.079c.01.01.028.01.038 0 .01-.011.028-.023.028-.034l.057-.19c.01-.023 0-.057-.019-.068a.63.63 0 0 0-.331-.1.461.461 0 0 0-.473.481c0 .146.066.337.36.471.17.079.198.135.198.213 0 .101-.066.157-.19.157a.399.399 0 0 1-.264-.1c-.01-.012-.029-.012-.038-.012-.01.011-.028.023-.028.034l-.057.224c-.01.022 0 .056.019.067a.671.671 0 0 0 .369.112c.312 0 .51-.19.51-.493 0-.235-.113-.392-.359-.504Z" opacity=".01"/><path fill="#0EE0B8" d="M14.338 9.965h-3.69c-.162 0-.332.18-.332.37v4.484l1.874 2.096h2.148c.16 0 .331-.18.331-.37v-6.21c0-.19-.17-.37-.33-.37Z"/><path fill="#FC9E17" d="M14.338 9.965h-3.69c-.162 0-.332.18-.332.37v4.484l1.874 2.096h2.148c.16 0 .331-.18.331-.37v-6.21c0-.19-.17-.37-.33-.37Z"/><path fill="#D68B1E" d="M14.67 15.346v-5.011c0-.19-.171-.37-.332-.37h-3.69c-.162 0-.304.157-.304.336"/><path fill="#B57208" d="M14.67 15.346v-5.011c0-.19-.171-.37-.332-.37H12.02"/><path fill="#FFB140" d="M11.925 14.898v1.67c0 .022.019.045.019.067l.227.258c.019 0 .038.022.056.022h1.486l-1.75-2.017h-.038Z"/><path fill="#B57208" d="M11.925 14.887v1.681c0 .023.019.045.019.067l.227.258c.019 0 .038.023.056.023h.758l-.861-1.693-.2-.336Z"/><path fill="#fff" d="M12.19 16.915h.019v-1.76c0-.19-.142-.37-.303-.37l-1.59.023 1.874 2.107Z"/><path fill="#D2F3FF" d="m10.316 14.808 1.874 2.107h.019v-1.793"/><path fill="#E5A13E" d="M10.505 14.808v-4.473c0-.19.114-.37.265-.37h-.123c-.16 0-.331.18-.331.37v4.484l.19-.011Z"/><path fill="#fff" d="M13.002 12.546c0 .019.003.036.01.052a.12.12 0 0 0 .062.07c.014.007.03.01.047.01a.112.112 0 0 0 .087-.039.13.13 0 0 0 .025-.043.157.157 0 0 0 0-.105.12.12 0 0 0-.062-.07.116.116 0 0 0-.16.072.158.158 0 0 0-.009.053Zm.02.36v.688a.11.11 0 0 0 .025.077c.016.018.041.027.075.027.034 0 .059-.009.075-.027a.11.11 0 0 0 .025-.077v-.688a.11.11 0 0 0-.025-.077c-.016-.019-.041-.028-.075-.028-.034 0-.059.01-.075.028a.11.11 0 0 0-.025.077Zm-.622.085h-.417l.138-.514.025-.1.02-.083.018-.078h.004c.005.024.011.05.019.078l.02.083.028.1.145.514Zm-.56.547.075-.269h.557l.079.27c.008.03.015.055.022.074.007.019.016.035.027.048a.122.122 0 0 0 .043.033.133.133 0 0 0 .057.011.177.177 0 0 0 .113-.04.152.152 0 0 0 .055-.12.214.214 0 0 0-.004-.04.744.744 0 0 0-.017-.066l-.388-1.31-.019-.057a.456.456 0 0 0-.039-.084.265.265 0 0 0-.023-.033.182.182 0 0 0-.072-.052.276.276 0 0 0-.105-.017.276.276 0 0 0-.105.017.183.183 0 0 0-.071.052.288.288 0 0 0-.044.07.48.48 0 0 0-.019.047l-.019.057-.386 1.317-.017.064a.186.186 0 0 0-.005.041.144.144 0 0 0 .051.114.172.172 0 0 0 .108.04c.022 0 .04-.003.057-.01a.11.11 0 0 0 .04-.03.161.161 0 0 0 .027-.05.916.916 0 0 0 .023-.077Z"/><path fill="#F1F2F2" d="M82.904 62.03v4.588h-74.9V62.03h74.9Z"/><path fill="#F1F2F2" d="M12.26 62.364v13.652H8.005V62.364h4.255ZM82.903 62.83v13.65h-4.256V62.83h4.256Z"/><path fill="#BCBEC0" d="M28.431 54.666h8.15l.679 7.395h-9.508l.68-7.395Z"/><path fill="#E6E7E8" d="M40.335 61.792c0 .267-.366.485-.818.485H25.494c-.453 0-.818-.218-.818-.485v-.13c0-.267.365-.482.818-.482h14.022c.452 0 .818.215.818.482v.13h.001Z"/><path fill="#EDECE9" d="M11.133 51.532v2.94c0 1.13.774 1.643 1.727 1.643h39.29c.953 0 1.727-.514 1.727-1.644v-2.939H11.133Z"/><path fill="#2F292B" d="M53.877 52.806V22.502c0-1.13-.774-1.645-1.728-1.645H12.861c-.953 0-1.726.514-1.726 1.645v30.304h42.742Z"/><path fill="#31A499" d="M52.86 22.401v28.885H12.15V22.401h40.71Z"/><path fill="#63C8C7" d="M52.86 22.401v2.677H12.15V22.4h40.71Z"/><path fill="#417E8F" d="M14.362 23.739c0 .335-.23.609-.514.609-.284 0-.514-.274-.514-.61 0-.335.23-.608.514-.608.284 0 .514.273.514.609Z"/><path fill="#42494F" d="M39.232 26.63v22.552h-25.9V26.63h25.9Z"/><path fill="#58595B" d="M39.232 26.63v1.296h-25.9V26.63h25.9Z"/><path fill="#E36230" d="M14.941 27.278c0 .223-.153.404-.34.404-.189 0-.342-.181-.342-.404 0-.223.153-.404.341-.404.188 0 .341.181.341.404Z"/><path fill="#F6E19C" d="M15.9 27.278c0 .223-.153.404-.34.404-.189 0-.342-.181-.342-.404 0-.223.153-.404.341-.404.188 0 .341.18.341.402v.002Z"/><path fill="#9BBD2F" d="M16.858 27.278c0 .223-.153.404-.341.402-.189 0-.341-.18-.34-.404 0-.222.153-.404.34-.402.188.002.34.181.34.404Z"/><path fill="#D7DF23" d="M20.976 31.466v.416h-5.584v-.416h5.584ZM18.582 33.152v.416h-3.19v-.416h3.19Z"/><path fill="#F7941E" d="M20.692 33.152v.416h-1.426v-.416h1.426Z"/><path fill="#EF4136" d="M23.654 34.773v.415h-8.262v-.415h8.262Z"/><path fill="#F7941E" d="M28.383 34.773v.415h-3.817v-.415h3.817Z"/><path fill="#D7DF23" d="M20.692 36.191v.415h-4.446v-.415h4.446Z"/><path fill="#F7941E" d="M22.857 36.191v.415h-1.425v-.415h1.425Z"/><path fill="#EF4136" d="M29.58 36.191v.415h-5.584v-.415h5.585ZM18.184 37.879v.414h-2.792v-.414h2.792Z"/><path fill="#F7941E" d="M20.178 37.879v.414h-1.31v-.414h1.31Z"/><path fill="#D7DF23" d="M29.58 37.879v.414h-8.376v-.414h8.376Z"/><path fill="#F7941E" d="M16.788 39.297v.414h-1.396v-.414h1.396ZM22.856 39.297v.414h-5.242v-.414h5.242Z"/><path fill="#EF4136" d="M30.834 39.297v.414h-6.838v-.414h6.838Z"/><path fill="#D7DF23" d="M20.976 40.983v.416h-5.584v-.416h5.584Z"/><path fill="#F7941E" d="M30.265 40.983v.416h-8.12v-.416h8.12Z"/><path fill="#443947" d="M51.647 30.376v18.123h-10.1V30.376h10.1Z"/><path fill="#58595B" d="M51.646 30.376v1.298H41.49v-1.298h10.157Z"/><path fill="#E36230" d="M43.675 31.024c0 .223-.152.403-.34.403-.188 0-.34-.182-.34-.404 0-.222.152-.401.34-.403.188.002.34.181.34.404Z"/><path fill="#F6E19C" d="M44.634 31.024c0 .223-.153.404-.341.404-.188 0-.341-.181-.341-.404 0-.223.151-.404.34-.404.189 0 .342.181.342.404Z"/><path fill="#9BBD2F" d="M42.695 31.024c0 .223-.153.404-.34.403-.189 0-.342-.182-.34-.404 0-.223.152-.404.34-.403.187.002.34.183.34.404Z"/><path fill="#fff" d="M44.206 33.839v.416h-.535v-.416h.535ZM44.206 34.95v.416h-.535v-.416h.535ZM44.206 35.915v.416h-.535v-.416h.535ZM44.206 40.295v.416h-.535v-.416h.535ZM44.206 43.658v.416h-.535v-.416h.535ZM45.41 37.045v.416h-.535v-.416h.534ZM45.41 38.156v.416h-.535v-.416h.534ZM44.889 41.492v.416h-.532v-.416h.532ZM44.889 42.562v.414h-.532v-.414h.532ZM45.41 39.339v.416h-.535v-.416h.534ZM46.69 33.839v.416h-1.952v-.416h1.951ZM47.6 34.837v.416h-2.862v-.416h2.863ZM48.508 40.295v.416h-3.77v-.416h3.77ZM47.536 35.915v.416h-2.912v-.416h2.912ZM47.536 43.658v.416h-2.912v-.416h2.912ZM48.269 37.045v.416h-2.555v-.416h2.555ZM48.269 38.228v.415h-2.555v-.415h2.555ZM48.269 39.339v.416h-2.555v-.416h2.555ZM48.269 41.492v.416h-2.555v-.416h2.555ZM48.269 42.562v.414h-2.555v-.414h2.555Z"/><path fill="#F1F2F2" d="M78.849 60.716c0 .162-23.371.162-23.371 0V46.973c0-1.25.27-1.6 1.257-1.6h20.856c1.003 0 1.258.437 1.258 1.6v13.743Z"/><path fill="#DAD3D6" d="M54.995 60.978c.032.572.283 1.018.59 1.018H78.74c.307 0 .558-.446.59-1.018H54.995Z"/><path fill="#F1F2F2" d="M79.33 60.253v.805H54.994v-.805h24.334Z"/><path fill="#565F66" d="M78.652 59.934c0 .156-22.976.156-22.976 0V47.199c0-1.228.266-1.573 1.236-1.573h20.504c.985 0 1.236.43 1.236 1.573v12.735Z"/><path fill="#31A499" d="M77.616 46.648v12.17h-20.92v-12.17h20.92Z"/><path fill="#F1F2F2" d="M73.694 47.416v10.987H59.917V47.416h13.777Z"/><path fill="#565F66" d="M73.272 47.751v10.316H60.338V47.75h12.934Z"/><path fill="#27AAE1" d="M64.477 50.343v.279h-3.024v-.28h3.024ZM67.052 51.256v.28h-5.6v-.28h5.6Z"/><path fill="#fff" d="M65.926 52.134v.279h-4.473v-.28h4.473Z"/><path fill="#00AEEF" d="M68.488 52.9v.28h-6.572v-.28h6.572Z"/><path fill="#fff" d="M69.507 53.815v.279h-8.054v-.28h8.054Z"/><path fill="#00AEEF" d="M69.357 54.583v.28h-6.7v-.28h6.7Z"/><path fill="#fff" d="M69.507 55.496v.28h-8.054v-.28h8.054Z"/><path fill="#69411F" d="M38.373 29.603c-.18-.371-.604.41-.811 1.03-.108-.22-.537-3.23-.596-4.536-1.178-1.484-2.695-1.674-4.603-1.674-2.093 0-4.43.373-5.637 1.58-.068 1.604-.207 4.353-.205 4.505-.205-.598-.564-1.261-.74-.905-.303.618-.721 1.454-.237 2.595.483 1.143.636 1.64.97 1.21a.822.822 0 0 0 .128-.306s.984 2.98 1.61 3.836c.422.575 1.73 1.733 1.73 1.733.11 1.349.169 3.109.061 3.505-.232.834-1.96 5.176-1.96 5.176 7.359.242 7.373.043 8.231.379.768.298-1.849-4.567-2.117-5.322-.14-.396-.17-2.426-.133-3.871 0 0 1.188-1.349 1.618-1.946.53-.736 1.768-3.178 1.768-3.178.025-.077.053-.149.08-.227a.69.69 0 0 0 .106.223c.334.43.485-.067.97-1.21.49-1.143.072-1.98-.233-2.597ZM41.756 58.18l9.8-.112-.175 4.42-9.726-1.76.101-2.548Z"/><path fill="#69411F" d="M37.8 58.655a5.411 5.411 0 0 1-.936-.2c-1.032-.338-1.77-.018-1.752.753l1.08.116c.993.358 2.147 1.115 3.227 1.165.855.039 4.568.706 4.568.706l1.065-2.9-3.494-.293-2.104-3.356c-.211-.295-.613-.272-.673.202l-.399-.432c-.295-.32-.642-.116-.734.283l-.199-.218c-.308-.338-.655-.157-.758.288l-1.67-2.574c-.284.08-.534.514-.124 1.252l2.904 5.208ZM11.136 58.332s-1.244 2.08.479 3.874c.883.92 2.308.153 2.308.153l5.543-6.69-2.499-6.215-5.83 8.878Z"/><path fill="#fff" d="m18.904 57.01 6.143-5.94 2.884-6.09-4.012-4.306-8.65 9.95 3.635 6.386Z"/><path fill="#69411F" d="m29.374 45.408-.285-8.298 5.914.078.227 8.221-5.856-.001ZM53.114 58.332s1.242 2.08-.479 3.874c-.884.92-2.31.153-2.31.153l-5.545-6.69 2.5-6.215 5.834 8.878Z"/><path fill="#fff" d="m45.358 57.01-6.143-5.94-2.884-6.09 4.012-4.306 8.651 9.95-3.636 6.386Z"/><path fill="#fff" d="m40.3 40.647-5.267-.796s-2.087.573-3.076.573c-.993 0-2.742-.573-2.742-.573l-5.26.796.718 4.78v2.674l-2.781 5.888-2.068 20.253s8.329-.077 12.095.016v.008l.204-.003.202.003v-.008c3.772-.093 11.412.008 11.412.008L42.36 53.99"/><path fill="#69411F" d="m21.66 61.041-9.728 1.636-.148-4.447 9.79.248.086 2.563Z"/><path fill="#69411F" d="M25.317 59.168c.32-.035.638-.098.95-.19 1.047-.324 1.793.006 1.77.78l-1.096.102c-1.008.346-2.18 1.091-3.274 1.127-.867.028-4.63.65-4.63.65l-1.06-2.925 3.54-.248 2.153-3.341c.215-.293.622-.265.68.212l.407-.429c.3-.316.65-.107.741.294l.203-.216c.314-.336.664-.15.765.298l1.709-2.56c.287.083.537.522.117 1.257l-2.975 5.19Z"/><path fill="#231F20" d="M37.887 24.422c-.138-1.113-.245-2.295-.978-3.07-.734-.775-1.823-1.461-2.617-1.534-.795-.073-1.865-.119-1.865-.119s-.082-.221.176-.486c.261-.265-.076-.386-.672 0-.595.386-1.39.87-1.39.87s-.436.387-.357.072c.079-.312.657-1.188.657-1.188s-2.928 1.405-3.731 2.444c-1.927 2.49-1.055 6.593-.555 8.384l.092 3.307s.984 2.98 1.611 3.837c.384.522 1.06 1.363 1.52 1.627.477.274 1.572.403 2.096.398.549-.001 1.704-.118 2.196-.427.508-.32 1.189-1.349 1.619-1.946.53-.737 1.768-3.178 1.768-3.178l.001-3.267c.07-.17.735-3.318.429-5.724Z"/><path fill="#C2B59B" d="M45.98 76.481c.077-.161.119-.343.123-.527L43.79 58.211c0-4.839-2.07-8.758-4.622-8.758H25.375c-2.553 0-4.625 3.92-4.625 8.758l-2.7 17.743c.003.186.045.367.123.527H45.98Z"/><path fill="#58595B" d="M32.97 76.385v-5.256c0-.815-.42-1.478-.94-1.478-.518 0-.938.661-.938 1.478v5.256h1.878Z"/><path fill="#58595B" d="M34.6 64.284c.875 0 1.583.982 1.583 2.198v2.125c0 1.215-.708 2.2-1.582 2.2h-5.048c-.871 0-1.58-.985-1.58-2.2v-2.125c0-1.215.708-2.198 1.58-2.198h5.048Z"/></g></g><defs><clipPath id="a"><path fill="#fff" d="M0 0h84v75H0z"/></clipPath></defs></svg>