<svg width="84" height="75" viewBox="0 0 84 75" fill="none" xmlns="http://www.w3.org/2000/svg">
<g clip-path="url(#clip0_486_3894)">
<mask id="mask0_486_3894" style="mask-type:luminance" maskUnits="userSpaceOnUse" x="0" y="0" width="84" height="75">
<path d="M84 0H0V75H84V0Z" fill="white"/>
</mask>
<g mask="url(#mask0_486_3894)">
<path d="M49.5801 9.81641L50.0717 16.3926L52.2787 17.1233L54.4851 16.3931L54.9774 9.81641H49.5801Z" fill="#FF5722"/>
<path d="M53.9113 11.9671H52.2786H51.3245L51.3862 12.7933H52.2786H53.8497L53.6642 15.2704L52.2786 15.7284L52.2775 15.7289L50.8927 15.2704L50.796 13.9747H51.4745L51.525 14.6469L52.2779 14.8894L52.2786 14.889L53.0324 14.6465L53.111 13.6003H52.2786H50.7682L50.5854 11.1611H52.2786H53.9715L53.9113 11.9671Z" fill="#FAFAFA"/>
<path d="M55.6975 17.2422L56.165 23.4976L58.2645 24.1927L60.3633 23.4981L60.8315 17.2422H55.6975Z" fill="#2196F3"/>
<path d="M59.8318 19.2883L59.7728 20.0741L59.5946 22.4298L58.2646 22.8655L58.2634 22.866L56.9341 22.4298L56.8413 21.1979H57.4925L57.541 21.8369L58.2638 22.068L58.2642 22.0676L58.9881 21.8365L59.0866 20.7716L56.8101 20.7791L56.7455 20.051L59.1413 20.0176L59.1897 19.2382L56.6813 19.2465L56.6392 18.5215H58.2646H59.8898L59.8318 19.2883Z" fill="#FAFAFA"/>
<path d="M7.15845 16.5H3.27828C3.10915 16.5 2.93011 16.6886 2.93011 16.889V21.6031L4.89998 23.8069H7.15845C7.32758 23.8069 7.50661 23.6183 7.50661 23.418V16.889C7.50661 16.6886 7.32758 16.5 7.15845 16.5Z" fill="#0EE0B8"/>
<path d="M7.15845 16.5H3.27828C3.10915 16.5 2.93011 16.6886 2.93011 16.889V21.6031L4.89998 23.8069H7.15845C7.32758 23.8069 7.50661 23.6183 7.50661 23.418V16.889C7.50661 16.6886 7.32758 16.5 7.15845 16.5Z" fill="#7C4EA8"/>
<path d="M7.50662 22.1569V16.889C7.50662 16.6886 7.32759 16.5 7.15846 16.5H3.27828C3.10915 16.5 2.95996 16.665 2.95996 16.8536" fill="#653E93"/>
<path d="M7.50661 22.1569V16.889C7.50661 16.6886 7.32758 16.5 7.15845 16.5H4.72095" fill="#553687"/>
<path d="M4.62152 21.6855V23.4416C4.62152 23.4652 4.64146 23.4887 4.64146 23.5123L4.88017 23.7833C4.9001 23.7833 4.91991 23.8069 4.93984 23.8069H6.50187L4.66126 21.6855H4.62152Z" fill="#653E93"/>
<path d="M4.62152 21.6729V23.4406C4.62152 23.4642 4.64146 23.4877 4.64146 23.5113L4.88017 23.7825C4.9001 23.7825 4.91991 23.806 4.93984 23.806H5.73584L4.83039 22.0265L4.62152 21.6729Z" fill="#553687"/>
<path d="M4.9001 23.8065H4.92003V21.9563C4.92003 21.756 4.77084 21.5674 4.60171 21.5674L2.93024 21.591L4.9001 23.8065Z" fill="white"/>
<path d="M2.93024 21.5908L4.9001 23.8065H4.92003V21.9208" fill="#ECE4F9"/>
<path d="M3.12908 21.5912V16.889C3.12908 16.6886 3.24844 16.5 3.40766 16.5H3.27828C3.10915 16.5 2.93011 16.6886 2.93011 16.889V21.6031L3.12908 21.5912Z" fill="#C588FF"/>
<path d="M4.83038 19.741L4.65135 19.1518C4.61161 19.0104 4.58177 18.9161 4.56183 18.7982H4.5518C4.52197 18.9161 4.49213 19.0222 4.46229 19.1518L4.28325 19.741H4.83038ZM4.24339 19.9768L4.05445 20.6839H3.81561L4.43245 18.5625H4.71103L5.32786 20.6839H5.07912L4.89006 19.9768H4.24339Z" fill="white"/>
<path d="M4.36273 19.6814H4.76066L4.61147 19.1747C4.59154 19.104 4.5716 19.045 4.5617 18.9979C4.55179 19.045 4.54176 19.0805 4.53186 19.1276L4.52183 19.1747L4.36273 19.6814ZM4.83025 19.7993H4.28312C4.26318 19.7993 4.25315 19.7874 4.24325 19.7757C4.23334 19.764 4.23334 19.7405 4.23334 19.7169L4.42241 19.0804C4.45225 18.9743 4.48208 18.88 4.50202 18.774C4.51192 18.7504 4.53173 18.7269 4.55167 18.7269H4.5617C4.58163 18.7269 4.60157 18.7504 4.61147 18.774C4.64131 18.8919 4.66124 18.9862 4.70099 19.1276L4.88002 19.705C4.88992 19.7286 4.88002 19.7404 4.87011 19.764C4.86021 19.7876 4.85018 19.7993 4.83025 19.7993ZM5.10883 20.6243H5.24811L4.67115 18.6209H4.46215L3.88518 20.6243H4.02447L4.20351 19.9643C4.21341 19.9407 4.23334 19.9172 4.25328 19.9172H4.88992C4.90986 19.9172 4.92979 19.929 4.9397 19.9526L5.10883 20.6243ZM5.32773 20.7421C5.31782 20.7421 5.31782 20.7421 5.32773 20.7421H5.07899C5.05905 20.7421 5.03912 20.7304 5.02921 20.7067L4.84028 20.035H4.27309L4.09406 20.695C4.08415 20.7186 4.06422 20.7421 4.04428 20.7421H3.80557C3.78564 20.7421 3.77561 20.7304 3.7657 20.7186C3.7558 20.7069 3.7558 20.6833 3.7558 20.6597L4.37263 18.5383C4.38254 18.5147 4.40247 18.5029 4.42241 18.5029H4.70099C4.72092 18.5029 4.74073 18.5147 4.75063 18.5383L5.35757 20.6479C5.36747 20.6597 5.36747 20.6715 5.36747 20.6833C5.37737 20.7186 5.34766 20.7421 5.32773 20.7421Z" fill="white"/>
<path d="M6.3725 19.7411C6.3725 19.5054 6.31282 19.2931 6.04415 19.2931C5.80531 19.2931 5.70589 19.5054 5.68596 19.7411H6.3725ZM5.67605 19.9767C5.68596 20.3304 5.88493 20.4835 6.12376 20.4835C6.29289 20.4835 6.39244 20.4363 6.48195 20.3892L6.5217 20.5895C6.44208 20.6366 6.29289 20.6838 6.09392 20.6838C5.69599 20.6838 5.45715 20.3774 5.45715 19.9061C5.45715 19.4464 5.68596 19.0811 6.06408 19.0811C6.49186 19.0811 6.60131 19.5406 6.60131 19.8235C6.60131 19.8824 6.59128 19.8588 6.59128 19.9767H5.67605Z" fill="white"/>
<path d="M5.7357 19.6815H6.31267C6.30276 19.5636 6.28283 19.4811 6.23306 19.4222C6.19331 19.3632 6.12361 19.3398 6.03409 19.3398C5.82522 19.3515 5.75564 19.5518 5.7357 19.6815ZM6.37235 19.7993H5.68593C5.67602 19.7993 5.65609 19.7875 5.64618 19.7758C5.63628 19.7641 5.63615 19.7522 5.63615 19.7286C5.66599 19.4103 5.81531 19.2218 6.04412 19.2218C6.16347 19.2218 6.25299 19.2573 6.31267 19.3398C6.38225 19.4222 6.42212 19.5637 6.42212 19.7404C6.42212 19.7758 6.39228 19.7993 6.37235 19.7993ZM6.06393 19.1394C5.73558 19.1394 5.50689 19.4577 5.50689 19.9054C5.50689 20.3415 5.73558 20.6243 6.09377 20.6243C6.2728 20.6243 6.39241 20.5889 6.46199 20.5536L6.44205 20.4711C6.36244 20.5065 6.26289 20.5418 6.1137 20.5418C5.81519 20.5418 5.62612 20.3179 5.61622 19.9761C5.61622 19.9644 5.61635 19.9406 5.62625 19.9289C5.63615 19.9172 5.64606 19.9172 5.66599 19.9172H6.53157C6.53157 19.8936 6.53157 19.8818 6.53157 19.8701C6.53157 19.8584 6.53157 19.8463 6.53157 19.8346C6.54147 19.7522 6.53157 19.1394 6.06393 19.1394ZM6.09377 20.7422C5.6759 20.7422 5.40735 20.4122 5.40735 19.9054C5.40735 19.3868 5.6759 19.0215 6.06393 19.0215C6.52154 19.0215 6.65092 19.5282 6.65092 19.8229C6.65092 19.8465 6.65092 19.8582 6.65092 19.8818C6.65092 19.8936 6.65092 19.9172 6.64102 19.9761C6.64102 20.0115 6.62109 20.0351 6.59125 20.0351H5.7357C5.75564 20.2825 5.90483 20.4239 6.12373 20.4239C6.28295 20.4239 6.37247 20.3886 6.46199 20.3415C6.47189 20.3298 6.49183 20.3298 6.50173 20.3415C6.51164 20.3532 6.52166 20.3651 6.53157 20.3768L6.57144 20.5772C6.58134 20.6008 6.56141 20.6361 6.54147 20.6479C6.46186 20.6949 6.31267 20.7422 6.09377 20.7422Z" fill="white"/>
<g opacity="0.1">
<path d="M4.85032 19.9175H4.44236L4.60158 19.3518C4.61149 19.3164 4.62152 19.293 4.62152 19.2694C4.63142 19.2457 4.63142 19.2221 4.64133 19.1985C4.65123 19.2221 4.66126 19.2575 4.67117 19.2811C4.68107 19.3047 4.6911 19.3282 4.6911 19.3635L4.85032 19.9175ZM4.84042 18.6564C4.83052 18.6328 4.81058 18.6211 4.79065 18.6211H4.51207C4.49213 18.6211 4.4722 18.6328 4.46229 18.6564L3.84546 20.8956C3.84546 20.9192 3.84546 20.9311 3.85536 20.9428C3.86527 20.9546 3.8753 20.9664 3.89523 20.9664H4.13394C4.15388 20.9664 4.17381 20.9546 4.18372 20.9192L4.36275 20.2592H4.92994L5.10897 20.9311C5.11887 20.9547 5.13881 20.9664 5.15874 20.9664H5.40748C5.43732 20.9664 5.45713 20.9428 5.45713 20.9075C5.45713 20.8957 5.45713 20.8839 5.44723 20.8721L4.84042 18.6564Z" fill="black"/>
</g>
<g opacity="0.1">
<path d="M6.12377 19.588C6.21329 19.588 6.28299 19.6115 6.32274 19.6704C6.37251 19.7294 6.39244 19.8118 6.40235 19.9297H5.82526C5.84519 19.7883 5.9149 19.588 6.12377 19.588ZM6.14358 19.2344C5.75555 19.2344 5.487 19.5997 5.487 20.1183C5.487 20.6251 5.75555 20.9432 6.17342 20.9432C6.38229 20.9432 6.53161 20.8842 6.62112 20.8371C6.64106 20.8254 6.65109 20.8018 6.65109 20.7665L6.61122 20.5778C6.61122 20.5661 6.60132 20.5425 6.58138 20.5425C6.57148 20.5308 6.55154 20.5308 6.54164 20.5425C6.45212 20.5896 6.36261 20.6015 6.20338 20.6015C6.01432 20.6015 5.83529 20.5426 5.81535 20.1537H6.6709C6.73058 20.1537 6.73058 20.0711 6.73058 19.9887C6.73058 19.6469 6.58138 19.2344 6.14358 19.2344Z" fill="black"/>
</g>
<path d="M34.1189 8.22059V3.40812C34.1189 3.18371 33.9639 3 33.7745 3H30.9727L29.5657 4.66663V8.22059H34.1189Z" fill="#EDF4FC"/>
<path d="M29.5657 8.2207V9.92476C29.5657 10.1492 29.7208 10.3329 29.9103 10.3329H33.7745C33.9639 10.3329 34.1189 10.1492 34.1189 9.92476V8.2207H29.5657Z" fill="#FC657E"/>
<path d="M31.7161 8.74414H31.6022C31.5946 8.74414 31.5883 8.75157 31.5883 8.76063V9.53662C31.5883 9.62201 31.5522 9.67563 31.476 9.67563C31.3872 9.67563 31.3525 9.60256 31.3525 9.49667C31.3525 9.48761 31.3461 9.48003 31.3384 9.48003H31.2247C31.2171 9.48003 31.2108 9.48761 31.2108 9.49667C31.2108 9.71127 31.3163 9.83157 31.481 9.83157C31.6402 9.83157 31.73 9.71409 31.73 9.53662V8.76063C31.73 8.75157 31.7237 8.74414 31.7161 8.74414Z" fill="black"/>
<path d="M32.0224 9.10526C31.9785 9.04362 31.9817 8.87268 32.136 8.87268C32.2282 8.87268 32.2825 8.93981 32.2948 9.01615C32.2961 9.02402 32.3018 9.02951 32.3085 9.02951H32.431C32.4394 9.02951 32.4459 9.0209 32.4449 9.01095C32.4281 8.85546 32.3228 8.73145 32.136 8.73145C32.0362 8.73145 31.9369 8.76947 31.8836 8.86942C31.8313 8.96744 31.8406 9.10956 31.8866 9.18427C32.0087 9.38209 32.3146 9.31318 32.3146 9.53877C32.3146 9.62461 32.2695 9.691 32.1736 9.691C32.0708 9.691 32.0087 9.61125 32.0012 9.52229C32.0004 9.51382 31.9944 9.50744 31.9873 9.50744H31.866C31.8579 9.50744 31.8514 9.51575 31.8521 9.52541C31.8662 9.71565 32.0063 9.83224 32.1772 9.83224C32.3635 9.83224 32.4637 9.69471 32.4637 9.53432C32.4637 9.18932 32.1266 9.25169 32.0224 9.10526Z" fill="black"/>
<path d="M33.7745 10.4152H29.9103C29.6818 10.4152 29.496 10.1951 29.496 9.92448V8.22042C29.496 8.17482 29.5274 8.1377 29.5659 8.1377C29.6044 8.1377 29.6356 8.17482 29.6356 8.22042V9.92448C29.6356 10.1039 29.7588 10.2499 29.9103 10.2499H33.7745C33.926 10.2499 34.0492 10.1039 34.0492 9.92448V8.22042C34.0492 8.17482 34.0806 8.1377 34.119 8.1377C34.1575 8.1377 34.1887 8.17482 34.1887 8.22042V9.92448C34.1887 10.1951 34.0029 10.4152 33.7745 10.4152Z" fill="black"/>
<path d="M29.5658 4.66663H30.6283C30.8178 4.66663 30.9727 4.48292 30.9727 4.25851V3L29.5658 4.66663Z" fill="#FC657E"/>
<path d="M34.8555 6.94875C34.7397 6.9743 34.6484 7.08019 34.6263 7.21459C34.6252 7.22128 34.6173 7.22128 34.6162 7.21459C34.5941 7.08019 34.503 6.9743 34.3871 6.94875C34.3814 6.94741 34.3814 6.93821 34.3871 6.93687C34.503 6.91133 34.5941 6.80543 34.6162 6.67103C34.6173 6.66434 34.6252 6.66434 34.6263 6.67103C34.6484 6.80543 34.7397 6.91133 34.8555 6.93687C34.8613 6.93821 34.8613 6.94741 34.8555 6.94875Z" fill="#F5C84C"/>
<path d="M31.9382 10.874C31.857 10.892 31.7929 10.9663 31.7775 11.0606C31.7767 11.0653 31.7711 11.0653 31.7703 11.0606C31.7549 10.9663 31.6909 10.892 31.6096 10.874C31.6055 10.8732 31.6055 10.8668 31.6096 10.8659C31.6909 10.8479 31.7549 10.7737 31.7703 10.6793C31.7711 10.6746 31.7767 10.6746 31.7775 10.6793C31.7929 10.7737 31.857 10.8479 31.9382 10.8659C31.9423 10.8668 31.9423 10.8732 31.9382 10.874Z" fill="#FC657E"/>
<path d="M30.6699 2.59863C30.7219 2.59863 30.7642 2.64868 30.7642 2.71032C30.7642 2.77195 30.7219 2.822 30.6699 2.822C30.6179 2.822 30.5756 2.77195 30.5756 2.71032C30.5756 2.64868 30.6179 2.59863 30.6699 2.59863Z" fill="#FC657E"/>
<path d="M34.4943 5.87207C34.5463 5.87207 34.5886 5.92212 34.5886 5.98375C34.5886 6.04539 34.5463 6.09544 34.4943 6.09544C34.4423 6.09544 34.4 6.04539 34.4 5.98375C34.4 5.92212 34.4423 5.87207 34.4943 5.87207Z" fill="#87D147"/>
<path d="M30.1249 2.95463H30.074V2.89433C30.074 2.84918 30.043 2.8125 30.0049 2.8125C29.9668 2.8125 29.936 2.84918 29.936 2.89433V2.95463H29.8851C29.8469 2.95463 29.816 2.99116 29.816 3.03631C29.816 3.08146 29.8469 3.11814 29.8851 3.11814H29.936V3.17844C29.936 3.22359 29.9668 3.26027 30.0049 3.26027C30.043 3.26027 30.074 3.22359 30.074 3.17844V3.11814H30.1249C30.163 3.11814 30.194 3.08146 30.194 3.03631C30.194 2.99116 30.163 2.95463 30.1249 2.95463Z" fill="#70D6F9"/>
<path d="M31.0436 10.6094C31.0956 10.6094 31.1378 10.6594 31.1378 10.7211C31.1378 10.7827 31.0956 10.8327 31.0436 10.8327C30.9915 10.8327 30.9493 10.7827 30.9493 10.7211C30.9493 10.6594 30.9915 10.6094 31.0436 10.6094Z" fill="#F5C84C"/>
<path d="M29.6356 8.13759H34.0492V3.40769C34.0492 3.22828 33.926 3.08229 33.7745 3.08229H31.0016L29.6356 4.70051V8.13759ZM34.119 8.30288H29.5659C29.5274 8.30288 29.496 8.26575 29.496 8.22016V4.66635C29.496 4.64437 29.5034 4.62328 29.5165 4.60783L30.9234 2.9412C30.9364 2.92575 30.9542 2.91699 30.9728 2.91699H33.7745C34.0029 2.91699 34.1889 3.13709 34.1889 3.40769V8.22016C34.1889 8.26575 34.1575 8.30288 34.119 8.30288Z" fill="black"/>
<path d="M30.6283 4.74916H29.5862C29.5477 4.74916 29.5164 4.71203 29.5164 4.66643C29.5164 4.62084 29.5477 4.58371 29.5862 4.58371H30.6283C30.7797 4.58371 30.903 4.43772 30.903 4.25831V3.03292C30.903 2.98732 30.9342 2.9502 30.9727 2.9502C31.0112 2.9502 31.0425 2.98732 31.0425 3.03292V4.25846C31.0425 4.52906 30.8567 4.74916 30.6283 4.74916Z" fill="black"/>
<path d="M32.9979 6.10642L32.4008 5.57504C32.3415 5.52217 32.2569 5.53598 32.212 5.60682C32.1674 5.67722 32.1794 5.77746 32.2388 5.83033L32.6924 6.23415L32.2388 6.63781C32.1794 6.69068 32.1674 6.79108 32.212 6.86147C32.2569 6.93217 32.3417 6.94583 32.4008 6.89311L32.9979 6.36172C33.0696 6.29786 33.0697 6.17043 32.9979 6.10642Z" fill="#FC657E"/>
<path d="M31.4709 6.63768L31.0173 6.23402L31.4709 5.83035C31.5305 5.77733 31.5424 5.67723 31.4976 5.60669C31.453 5.53629 31.3683 5.52203 31.3088 5.57491L30.7118 6.10629C30.6776 6.13674 30.658 6.18337 30.658 6.23402C30.658 6.28466 30.6776 6.33129 30.7118 6.36174L31.3088 6.89312C31.3684 6.94614 31.4529 6.93189 31.4976 6.86134C31.5424 6.79095 31.5306 6.69085 31.4709 6.63768Z" fill="#FC657E"/>
<path d="M32.1081 5.36953C32.0386 5.34042 31.9611 5.3826 31.9359 5.46666L31.5088 6.89538C31.484 6.97854 31.5207 7.06973 31.5909 7.09929C31.6615 7.12884 31.7382 7.08488 31.7629 7.00201L32.1901 5.57344C32.215 5.48998 32.1782 5.39894 32.1081 5.36953Z" fill="#FC657E"/>
<path d="M32.3198 5.62526C32.3168 5.62526 32.3137 5.62555 32.3107 5.626C32.2935 5.62882 32.2781 5.63951 32.2677 5.656C32.2573 5.67234 32.2529 5.69283 32.2554 5.71318C32.2579 5.73367 32.2668 5.75164 32.2806 5.76397L32.7342 6.16763C32.7517 6.18323 32.762 6.20773 32.762 6.23372C32.762 6.25971 32.7517 6.28422 32.7342 6.29981L32.2806 6.70362C32.2519 6.72917 32.2461 6.77743 32.2677 6.81144C32.2892 6.84545 32.3301 6.85214 32.3587 6.82674L32.9558 6.29536C32.9724 6.28065 32.9818 6.25823 32.9818 6.23372C32.9818 6.20922 32.9724 6.18679 32.9558 6.17209L32.3588 5.6407C32.3474 5.6306 32.3339 5.62526 32.3198 5.62526ZM32.32 7.00748C32.2578 7.00748 32.1963 6.97407 32.1561 6.9108C32.0883 6.80402 32.1066 6.65179 32.1967 6.57144L32.5761 6.23372L32.1968 5.89615C32.1532 5.85724 32.1249 5.8005 32.1172 5.73635C32.1096 5.67219 32.1232 5.60847 32.1561 5.55679C32.1891 5.50496 32.2371 5.47139 32.2912 5.46234C32.3453 5.45342 32.3989 5.46976 32.4426 5.50852L33.0397 6.04006C33.0916 6.08625 33.1213 6.15679 33.1213 6.23372C33.1213 6.31065 33.0916 6.38135 33.0397 6.42753L32.4426 6.95892C32.4058 6.99159 32.3627 7.00748 32.32 7.00748Z" fill="black"/>
<path d="M31.3897 5.62616C31.3757 5.62616 31.3622 5.63151 31.351 5.64161L30.7538 6.17299C30.7371 6.18785 30.728 6.20983 30.728 6.23463C30.728 6.25943 30.7373 6.28141 30.7539 6.29626L31.351 6.82765C31.3649 6.83997 31.3818 6.84532 31.3991 6.84235C31.4163 6.83953 31.4316 6.82884 31.442 6.81235C31.4524 6.79587 31.4569 6.77552 31.4545 6.75517C31.4521 6.73483 31.443 6.71686 31.4291 6.70438L30.9755 6.30072C30.9579 6.28512 30.9476 6.26062 30.9476 6.23463C30.9476 6.20864 30.9579 6.18413 30.9755 6.16854L31.4291 5.76488C31.443 5.75255 31.4519 5.73443 31.4544 5.71408C31.4569 5.69374 31.4524 5.67339 31.442 5.65691C31.4316 5.64042 31.4164 5.63002 31.3991 5.62705C31.396 5.62661 31.3928 5.62616 31.3897 5.62616ZM31.3896 7.00854C31.3456 7.00854 31.3029 6.99176 31.2671 6.95983L30.6699 6.42844C30.618 6.38225 30.5883 6.31156 30.5883 6.23463C30.5883 6.1577 30.618 6.087 30.6699 6.04082L31.267 5.50943C31.3106 5.47052 31.3645 5.45433 31.4187 5.46339C31.4728 5.47245 31.5207 5.50601 31.5536 5.5577C31.5864 5.60938 31.6002 5.67324 31.5926 5.7374C31.5849 5.80156 31.5566 5.85814 31.5129 5.89705L31.1336 6.23463L31.5129 6.5722C31.5567 6.61111 31.585 6.66799 31.5927 6.73215C31.6003 6.79616 31.5864 6.86002 31.5536 6.91171C31.5207 6.96339 31.473 6.99695 31.4188 7.00601C31.409 7.00765 31.3992 7.00854 31.3896 7.00854Z" fill="black"/>
<path d="M32.0631 5.44264C32.0363 5.44264 32.0111 5.46254 32.0017 5.49403L31.5745 6.92274C31.5625 6.96284 31.5804 7.0068 31.6141 7.02106C31.648 7.03531 31.6852 7.01408 31.6971 6.97413L32.1243 5.54556C32.1362 5.50546 32.1184 5.46135 32.0847 5.4471C32.0775 5.44413 32.0702 5.44264 32.0631 5.44264ZM31.6357 7.19081C31.6131 7.19081 31.5901 7.18635 31.5676 7.177C31.4613 7.13244 31.4054 6.99343 31.443 6.86749L31.8701 5.43878C31.9078 5.31284 32.025 5.2466 32.1313 5.2913C32.2376 5.33601 32.2934 5.47472 32.2558 5.60066L31.8286 7.02937C31.7991 7.12873 31.7199 7.19081 31.6357 7.19081Z" fill="black"/>
<path d="M43.6374 6.6641C43.6374 6.98712 43.4166 7.24866 43.1439 7.24866C43.4165 7.24866 43.6374 6.98698 43.6374 6.6641ZM44.2543 4.61816H41.1701C40.8975 4.61816 40.6766 4.87985 40.6766 5.20272V5.34886H39.9364C39.6638 5.34886 39.4429 5.61054 39.4429 5.93341V6.6641C39.4429 6.98698 39.6638 7.24866 39.9364 7.24866H40.6766V8.27163V10.1714V10.756C40.6766 11.079 40.8974 11.3405 41.1701 11.3405H41.5402H41.9103C41.9103 11.6634 42.1312 11.9251 42.4037 11.9251H43.8842C44.1567 11.9251 44.3776 11.6634 44.3776 11.3405H44.7477H45.1178C45.3904 11.3405 45.6113 11.0789 45.6113 10.756V6.22569V6.07955L44.3776 4.61816H44.2543Z" fill="#FFD9F3"/>
<path d="M43.6374 5.93416V6.66486C43.6374 6.98773 43.4165 7.24941 43.1439 7.24941H39.9364C39.6638 7.24941 39.4429 6.98773 39.4429 6.66486V5.93416C39.4429 5.61129 39.6638 5.34961 39.9364 5.34961H43.1439C43.4165 5.34961 43.6374 5.61129 43.6374 5.93416Z" fill="#FF3FC2"/>
<path d="M43.8842 11.9254H42.4037C42.1312 11.9254 41.9103 11.6637 41.9103 11.3409V9.87948C41.9103 9.55661 42.1312 9.29492 42.4037 9.29492H43.8842C44.1567 9.29492 44.3776 9.55661 44.3776 9.87948V11.3409C44.3776 11.6637 44.1567 11.9254 43.8842 11.9254Z" fill="#FF3FC2"/>
<path d="M44.3776 4.61816H44.2542V5.64113C44.2542 5.96401 44.4751 6.22569 44.7477 6.22569H45.6113V6.07955L44.3776 4.61816Z" fill="#FF8CDA"/>
<path d="M43.85 11.3417H43.5692L43.514 11.2343L43.1439 10.4669L42.8631 11.0494L43.1439 11.0505L43.2144 11.0506L43.3618 11.3417H42.4379L43.1439 9.87793L43.85 11.3417Z" fill="white"/>
<path d="M39.994 6.45996V6.75699H39.8687V6.45996H39.994Z" fill="white"/>
<path d="M40.4443 6.8093L40.5092 6.6235C40.524 6.58103 40.5392 6.53722 40.5542 6.48836C40.5717 6.53945 40.5868 6.58177 40.6035 6.62395L40.6736 6.80945H40.9502L40.7171 6.29811L40.9369 5.79004H40.6704L40.6188 5.96083C40.606 5.99885 40.5911 6.04385 40.5758 6.09613C40.5709 6.08217 40.5661 6.06865 40.5616 6.05573C40.5493 6.02039 40.5383 5.98845 40.5273 5.96083L40.4675 5.79019H40.1909L40.4109 6.28623L40.178 6.80959H40.4443V6.8093Z" fill="white"/>
<path d="M41.2672 6.56968V6.03176C41.3724 6.03176 41.4698 6.06384 41.4698 6.29611C41.4698 6.53834 41.3617 6.56968 41.2672 6.56968ZM41.7217 6.29611C41.7217 5.96567 41.569 5.79102 41.2799 5.79102H41.0204V6.81042H41.2928C41.5654 6.81027 41.7217 6.62285 41.7217 6.29611Z" fill="white"/>
<path d="M34.8793 17.0343C34.8793 18.238 34.3878 19.3057 33.6297 19.9714C33.3124 20.25 32.9484 20.4582 32.5541 20.5763C32.3113 20.6492 32.057 20.6878 31.7951 20.6878C31.5332 20.6878 31.2788 20.6492 31.036 20.5763C30.6417 20.4582 30.2777 20.25 29.9604 19.9712C29.2023 19.3056 28.7109 18.2379 28.7109 17.0343C28.7109 15.0166 30.0918 13.3809 31.7951 13.3809C33.4984 13.3809 34.8793 15.0166 34.8793 17.0343Z" fill="#5ADAFD"/>
<path d="M33.3503 19.9169C33.3137 20.1045 33.2464 20.2331 33.1501 20.2989C33.0539 20.3648 32.9262 20.3695 32.7707 20.3134C32.6023 20.2524 32.4057 20.1192 32.202 19.9276C32.1336 19.8631 32.0649 19.793 31.9963 19.7177C31.9291 19.6438 31.8619 19.5646 31.7952 19.481C31.6806 19.3374 31.5674 19.1804 31.4568 19.0117C31.3831 18.8991 31.3104 18.7813 31.2395 18.6593C31.1367 18.4822 31.0373 18.2958 30.9429 18.102C30.8484 17.9082 30.7618 17.7131 30.6839 17.5191C30.63 17.3853 30.5802 17.2521 30.5349 17.12C30.4668 16.9224 30.4085 16.7274 30.3608 16.5382C30.3331 16.4278 30.3089 16.3195 30.2886 16.2135C30.2676 16.1055 30.2506 15.9999 30.2378 15.8975C30.1996 15.5929 30.2004 15.3245 30.24 15.1212C30.2767 14.9336 30.3442 14.8051 30.4404 14.7394C30.4924 14.7039 30.5535 14.6859 30.6231 14.6859C30.6825 14.6859 30.7482 14.6988 30.8196 14.7248C30.988 14.7857 31.1846 14.9192 31.3883 15.1106C31.4568 15.1751 31.5256 15.2452 31.5941 15.3208C31.6614 15.3946 31.7286 15.4736 31.7952 15.5571C31.9099 15.7007 32.0231 15.8578 32.1338 16.0267C32.2075 16.1393 32.2802 16.257 32.3511 16.3791C32.4538 16.5561 32.5531 16.7425 32.6475 16.9362C32.742 17.13 32.8286 17.3251 32.9066 17.5191C32.9605 17.6531 33.0102 17.7863 33.0554 17.9183C33.1235 18.116 33.1818 18.3108 33.2296 18.5C33.2573 18.6104 33.2815 18.7187 33.3019 18.8247C33.3227 18.9327 33.3398 19.0381 33.3526 19.1406C33.3908 19.4452 33.3899 19.7136 33.3503 19.9169ZM33.633 19.0913C33.6186 18.9763 33.5995 18.8578 33.5758 18.7368C33.5549 18.6304 33.5306 18.522 33.503 18.412C33.4305 18.123 33.335 17.8227 33.2192 17.5191C33.1684 17.3863 33.1138 17.2531 33.0556 17.1199C33.0041 17.0026 32.95 16.8849 32.8929 16.7682C32.836 16.6513 32.7775 16.5371 32.7172 16.4257C32.6491 16.2995 32.5789 16.1768 32.5072 16.0585C32.3433 15.7879 32.1714 15.5395 31.9963 15.3206C31.9297 15.2373 31.8626 15.1582 31.7953 15.0838C31.7187 14.9988 31.6416 14.9199 31.5646 14.8476C31.0625 14.3753 30.6129 14.2335 30.2986 14.4484C29.9843 14.6635 29.8632 15.1954 29.9573 15.9469C29.9716 16.0619 29.9909 16.1802 30.0148 16.3013C30.0354 16.4076 30.0598 16.516 30.0875 16.6261C30.1599 16.9151 30.2555 17.2157 30.3714 17.5191C30.4221 17.6519 30.4766 17.7849 30.5349 17.9182C30.5863 18.0356 30.6405 18.153 30.6974 18.2698C30.7543 18.3867 30.813 18.5011 30.8733 18.6125C30.9415 18.7389 31.0117 18.8615 31.0833 18.9799C31.2472 19.2505 31.4189 19.4987 31.5941 19.7176C31.6606 19.8009 31.728 19.88 31.7953 19.9545C31.8719 20.0394 31.9489 20.1183 32.0257 20.1906C32.2104 20.3644 32.3879 20.4933 32.5542 20.576C32.9485 20.4579 33.3126 20.2498 33.6299 19.9712C33.6741 19.7295 33.6758 19.433 33.633 19.0913Z" fill="#F2F2F2"/>
<path d="M34.3257 17.9156C34.1971 18.058 34.0012 18.193 33.7594 18.3062C33.6779 18.3442 33.5923 18.3797 33.5029 18.4122C33.4151 18.4443 33.324 18.4736 33.2296 18.5002C33.0673 18.5459 32.8957 18.5835 32.717 18.6126C32.5979 18.6322 32.4757 18.6478 32.3509 18.6592C32.17 18.6763 31.9841 18.6851 31.7952 18.6851C31.6062 18.6851 31.4203 18.6763 31.2394 18.6594C31.1146 18.6478 30.9923 18.6322 30.8732 18.6126C30.6945 18.5835 30.5229 18.5459 30.3606 18.5002C30.2662 18.4736 30.1751 18.4443 30.0873 18.4122C29.9979 18.3797 29.9123 18.3442 29.8308 18.3062C29.589 18.193 29.3931 18.058 29.2645 17.9156C29.1457 17.7842 29.0853 17.6509 29.0853 17.5192C29.0853 17.3875 29.1457 17.2543 29.2645 17.1228C29.3931 16.9804 29.589 16.8455 29.8308 16.7324C29.9123 16.6944 29.9979 16.6589 30.0873 16.6263C30.1751 16.5943 30.2662 16.5649 30.3606 16.5383C30.5229 16.4925 30.6945 16.455 30.8732 16.4258C30.9923 16.4062 31.1146 16.3906 31.2394 16.3791C31.4203 16.3621 31.6062 16.3534 31.7952 16.3534C31.9841 16.3534 32.17 16.362 32.3509 16.3792C32.4757 16.3906 32.5979 16.4062 32.717 16.4258C32.8957 16.455 33.0673 16.4925 33.2296 16.5383C33.324 16.5649 33.4151 16.5943 33.5029 16.6263C33.5923 16.6589 33.6779 16.6944 33.7594 16.7324C34.0012 16.8455 34.1971 16.9804 34.3257 17.1228C34.4445 17.2543 34.5049 17.3875 34.5049 17.5192C34.5049 17.6508 34.4445 17.7842 34.3257 17.9156ZM33.8634 16.4201C33.7722 16.3774 33.676 16.3379 33.5756 16.3015C33.4875 16.2698 33.3961 16.2404 33.3018 16.2136C33.0543 16.1435 32.7869 16.0914 32.507 16.0586C32.3848 16.0442 32.26 16.0335 32.1337 16.0268C32.0221 16.0207 31.9091 16.0176 31.7952 16.0176C31.6812 16.0176 31.5682 16.0207 31.4565 16.0268C31.33 16.0335 31.2053 16.0443 31.083 16.0586C30.8032 16.0914 30.5359 16.1435 30.2884 16.2136C30.1941 16.2404 30.1028 16.2698 30.0146 16.3015C29.9142 16.3378 29.818 16.3774 29.7268 16.4201C29.1305 16.699 28.8019 17.0893 28.8019 17.5192C28.8019 17.9492 29.1305 18.3395 29.7268 18.6185C29.818 18.6611 29.9141 18.7006 30.0145 18.737C30.1026 18.7688 30.194 18.7982 30.2883 18.8248C30.5358 18.8951 30.8032 18.947 31.0832 18.98C31.2054 18.9943 31.3302 19.005 31.4567 19.0118C31.5682 19.0179 31.6812 19.0208 31.7952 19.0208C31.9091 19.0208 32.022 19.0179 32.1335 19.0118C32.26 19.005 32.3847 18.9943 32.507 18.98C32.7869 18.9472 33.0544 18.8951 33.3019 18.8248C33.3962 18.7981 33.4876 18.769 33.5757 18.737C33.676 18.7008 33.7722 18.6611 33.8634 18.6185C34.4598 18.3395 34.7883 17.9492 34.7883 17.5192C34.7883 17.0893 34.4598 16.699 33.8634 16.4201Z" fill="#F2F2F2"/>
<path d="M33.2295 16.5382C33.1818 16.7274 33.1236 16.9222 33.0555 17.1199C33.0101 17.2519 32.9605 17.3851 32.9066 17.5191C32.8286 17.7131 32.742 17.9082 32.6474 18.102C32.553 18.2957 32.4537 18.4821 32.351 18.6591C32.2801 18.7813 32.2074 18.899 32.1336 19.0115C32.0231 19.1802 31.9099 19.3374 31.7951 19.481C31.7286 19.5645 31.6614 19.6436 31.594 19.7176C31.5256 19.793 31.4569 19.863 31.3884 19.9274C31.1847 20.119 30.988 20.2524 30.8196 20.3134C30.6641 20.3695 30.5365 20.3648 30.4404 20.2989C30.3442 20.2331 30.2766 20.1045 30.24 19.9169C30.2004 19.7136 30.1995 19.4452 30.2378 19.1406C30.2505 19.0381 30.2676 18.9325 30.2884 18.8245C30.3088 18.7185 30.333 18.6102 30.3607 18.4999C30.4085 18.3107 30.4668 18.1158 30.5349 17.9182C30.5801 17.7861 30.6299 17.6529 30.6838 17.5191C30.7618 17.3251 30.8483 17.13 30.9429 16.9362C31.0373 16.7424 31.1367 16.5558 31.2395 16.3788C31.3103 16.2567 31.3829 16.1391 31.4566 16.0267C31.5673 15.8578 31.6805 15.7007 31.7951 15.5571C31.8618 15.4735 31.929 15.3945 31.9962 15.3206C32.0648 15.2452 32.1335 15.1751 32.202 15.1106C32.4057 14.9192 32.6023 14.7857 32.7707 14.7248C32.8421 14.6988 32.908 14.6859 32.9674 14.6859C33.037 14.6859 33.0981 14.7039 33.15 14.7394C33.2463 14.8051 33.3137 14.9336 33.3503 15.1212C33.3899 15.3245 33.3908 15.5929 33.3525 15.8975C33.3397 15.9999 33.3227 16.1055 33.3017 16.2135C33.2814 16.3195 33.2572 16.4278 33.2295 16.5382ZM33.2917 14.4484C32.9774 14.2335 32.5278 14.3753 32.0257 14.8476C31.9488 14.9199 31.8719 14.9988 31.7953 15.0838C31.7279 15.1582 31.6606 15.2373 31.594 15.3206C31.4189 15.5395 31.2471 15.7879 31.0831 16.0585C31.0116 16.1768 30.9413 16.2995 30.8733 16.4257C30.813 16.5371 30.7543 16.6513 30.6974 16.7682C30.6405 16.8851 30.5863 17.0026 30.5349 17.12C30.4766 17.2533 30.4221 17.3865 30.3714 17.5191C30.2554 17.8227 30.1598 18.123 30.0873 18.412C30.0596 18.5222 30.0354 18.6306 30.0146 18.7369C29.9909 18.858 29.9716 18.9763 29.9573 19.0913C29.9145 19.4329 29.9162 19.7292 29.9604 19.9711C30.2777 20.2498 30.6418 20.4579 31.0361 20.576C31.2024 20.4933 31.3799 20.3644 31.5646 20.1906C31.6414 20.1183 31.7185 20.0393 31.7953 19.9545C31.8626 19.88 31.9297 19.801 31.9962 19.7177C32.1713 19.4988 32.3433 19.2503 32.5071 18.9797C32.5787 18.8614 32.6489 18.7387 32.7171 18.6123C32.7774 18.5009 32.8361 18.3867 32.893 18.2698C32.9501 18.1531 33.0041 18.0356 33.0555 17.9182C33.1138 17.7849 33.1684 17.6517 33.2191 17.519C33.335 17.2155 33.4305 16.9151 33.503 16.6261C33.5306 16.516 33.5549 16.4076 33.5757 16.3013C33.5995 16.1802 33.6186 16.0617 33.6331 15.9468C33.7273 15.1954 33.606 14.6635 33.2917 14.4484Z" fill="#F2F2F2"/>
<path d="M31.7952 16.8525C32.1056 16.8525 32.3577 17.1511 32.3577 17.5189C32.3577 17.8867 32.1056 18.1853 31.7952 18.1853C31.4847 18.1853 31.2326 17.8867 31.2326 17.5189C31.2326 17.1511 31.4847 16.8525 31.7952 16.8525Z" fill="#F2F2F2"/>
<path d="M22.4023 5.6582H18.7115C18.5506 5.6582 18.3802 5.83761 18.3802 6.02815V10.5124L20.2541 12.6087H22.4023C22.5632 12.6087 22.7336 12.4293 22.7336 12.2387V6.02815C22.7336 5.83761 22.5632 5.6582 22.4023 5.6582Z" fill="#0EE0B8"/>
<path d="M22.4023 5.6582H18.7115C18.5506 5.6582 18.3802 5.83761 18.3802 6.02815V10.5124L20.2541 12.6087H22.4023C22.5632 12.6087 22.7336 12.4293 22.7336 12.2387V6.02815C22.7336 5.83761 22.5632 5.6582 22.4023 5.6582Z" fill="#1080DD"/>
<path d="M22.7334 11.0392V6.02815C22.7334 5.83761 22.5631 5.6582 22.4022 5.6582H18.7113C18.5505 5.6582 18.4086 5.81518 18.4086 5.99459" fill="#0070CC"/>
<path d="M22.7334 11.0392V6.02815C22.7334 5.83761 22.5632 5.6582 22.4023 5.6582H20.0837" fill="#0667B7"/>
<path d="M19.989 10.5908V12.2612C19.989 12.2836 20.0079 12.306 20.0079 12.3284L20.2351 12.5863C20.2541 12.5863 20.2729 12.6087 20.2918 12.6087H21.7776L20.0269 10.5908H19.989Z" fill="#0070CC"/>
<path d="M19.989 10.5791V12.2607C19.989 12.2832 20.0079 12.3054 20.0079 12.3279L20.2351 12.5858C20.2541 12.5858 20.2729 12.6083 20.2918 12.6083H21.0489L20.1877 10.9155L19.989 10.5791Z" fill="#0667B7"/>
<path d="M20.2541 12.6085H20.273V10.8485C20.273 10.6579 20.131 10.4785 19.9701 10.4785L18.3802 10.5009L20.2541 12.6085Z" fill="white"/>
<path d="M18.3802 10.501L20.2541 12.6086H20.273V10.8149" fill="#D2F3FF"/>
<path d="M18.5694 10.5011V6.02815C18.5694 5.83761 18.6828 5.6582 18.8343 5.6582H18.7113C18.5504 5.6582 18.3801 5.83761 18.3801 6.02815V10.5124L18.5694 10.5011Z" fill="#3DB8FC"/>
<path d="M19.8471 8.51679C19.8471 8.52793 19.9416 8.53906 20.0173 8.53906C20.2824 8.53906 20.4432 8.38223 20.4432 8.10199C20.4432 7.83288 20.2919 7.69832 20.0458 7.69832C19.9511 7.69832 19.8471 7.70961 19.8471 7.72075V8.51679ZM19.5631 7.5302C19.6578 7.50778 19.8281 7.48535 20.0079 7.48535C20.2256 7.48535 20.396 7.54134 20.5 7.65347C20.5947 7.75431 20.6515 7.90015 20.6515 8.07956C20.6515 8.25897 20.6041 8.40466 20.519 8.51679C20.4054 8.66248 20.2256 8.7409 20.0079 8.7409C19.9417 8.7409 19.8471 8.7409 19.8471 8.71847V9.51451H19.5631V7.5302Z" fill="white"/>
<path d="M19.8944 8.47226C19.9227 8.47226 19.9607 8.4834 20.0175 8.4834C20.1879 8.4834 20.396 8.41627 20.396 8.10231C20.396 7.87805 20.2824 7.75479 20.0458 7.75479C19.9796 7.75479 19.9227 7.75494 19.8944 7.76607V8.47226ZM20.0175 8.59553C19.8471 8.59553 19.7998 8.58439 19.7998 8.51711V7.73236C19.7998 7.68751 19.8092 7.65394 20.0458 7.65394C20.3298 7.65394 20.4906 7.82206 20.4906 8.1136C20.4906 8.40513 20.3109 8.59553 20.0175 8.59553ZM19.6105 9.46998H19.7998V8.73008C19.7998 8.68523 19.8471 8.66281 19.8754 8.68523C19.8944 8.68523 19.9322 8.69652 20.008 8.69652C20.2162 8.69652 20.3771 8.62924 20.4811 8.49469C20.5568 8.39385 20.5947 8.27043 20.5947 8.10231C20.5947 7.94533 20.5474 7.81093 20.4528 7.72122C20.3581 7.62038 20.1973 7.56424 19.9986 7.56424C19.8282 7.56424 19.6861 7.57538 19.601 7.59781V9.46998H19.6105ZM19.8471 9.58211H19.5631C19.5348 9.58211 19.5159 9.55954 19.5159 9.52597V7.53053C19.5159 7.5081 19.5348 7.48568 19.5537 7.47454C19.6673 7.45211 19.8376 7.42969 20.008 7.42969C20.2351 7.42969 20.4149 7.49696 20.5285 7.60909C20.6421 7.72122 20.6988 7.88934 20.6988 8.07989C20.6988 8.28172 20.6515 8.43855 20.5568 8.55068C20.4339 8.70766 20.2447 8.78622 20.0175 8.78622C19.9702 8.78622 19.9322 8.78622 19.9039 8.78622V9.51484C19.8944 9.55969 19.8754 9.58211 19.8471 9.58211Z" fill="white"/>
<path d="M20.8596 9.26831C20.9258 9.3243 21.0394 9.3693 21.153 9.3693C21.3138 9.3693 21.3895 9.26831 21.3895 9.15618C21.3895 9.03291 21.3233 8.96564 21.1625 8.88722C20.9448 8.79752 20.8407 8.65168 20.8407 8.48356C20.8407 8.24816 21.0015 8.05762 21.2666 8.05762C21.3895 8.05762 21.5033 8.10247 21.5695 8.14732L21.5127 8.33786C21.4654 8.3043 21.3707 8.24816 21.2572 8.24816C21.1246 8.24816 21.0489 8.33786 21.0489 8.44999C21.0489 8.57326 21.1246 8.6294 21.2855 8.69668C21.5031 8.79752 21.6073 8.92079 21.6073 9.13376C21.6073 9.39158 21.4369 9.57098 21.1436 9.57098C21.011 9.57098 20.8881 9.52613 20.7934 9.47014L20.8596 9.26831Z" fill="white"/>
<path d="M20.8597 9.44707C20.9354 9.49192 21.0395 9.51434 21.1531 9.51434C21.4086 9.51434 21.5694 9.36865 21.5694 9.13325C21.5694 8.95385 21.4843 8.84172 21.2761 8.74088C21.1246 8.6736 21.0112 8.60632 21.0112 8.4382C21.0112 8.29251 21.1152 8.18038 21.2667 8.18038C21.3613 8.18038 21.4369 8.21395 21.4937 8.23637L21.5222 8.14667C21.456 8.11311 21.3612 8.09068 21.2761 8.09068C21.0489 8.09068 20.8976 8.24766 20.8976 8.46063C20.8976 8.61761 20.9922 8.74088 21.1909 8.81929C21.3518 8.88657 21.4558 8.96499 21.4558 9.14439C21.4558 9.26766 21.3802 9.4135 21.172 9.4135C21.0679 9.4135 20.9732 9.37994 20.907 9.33509L20.8597 9.44707ZM21.1435 9.62647C21.0016 9.62647 20.8692 9.59276 20.7746 9.51434C20.7556 9.5032 20.7462 9.46949 20.7556 9.44707L20.8124 9.24538C20.8124 9.2341 20.8312 9.21167 20.8408 9.21167C20.8502 9.20053 20.8691 9.21167 20.8786 9.22296C20.9448 9.26781 21.0489 9.3238 21.1435 9.3238C21.2665 9.3238 21.3329 9.26766 21.3329 9.16682C21.3329 9.07712 21.3045 9.02113 21.1341 8.95385C20.8408 8.83058 20.7746 8.62875 20.7746 8.48306C20.7746 8.20281 20.9733 8.00098 21.2477 8.00098C21.3613 8.00098 21.4843 8.03454 21.579 8.10182C21.5979 8.11296 21.6074 8.14667 21.5979 8.1691L21.5505 8.3485C21.5505 8.35979 21.5316 8.38207 21.5222 8.38207C21.5126 8.3932 21.4937 8.38207 21.4843 8.38207C21.4464 8.3485 21.3707 8.30365 21.2571 8.30365C21.1625 8.30365 21.0963 8.35964 21.0963 8.44934C21.0963 8.52776 21.1437 8.57276 21.3045 8.64004C21.5506 8.75216 21.6547 8.89786 21.6547 9.13325C21.6547 9.43593 21.4558 9.62647 21.1435 9.62647Z" fill="white"/>
<g opacity="0.01">
<path d="M20.1026 8.68515C20.0554 8.68515 20.008 8.68515 19.989 8.67401V7.96768C20.0174 7.96768 20.0743 7.95654 20.1311 7.95654C20.3583 7.95654 20.4717 8.06867 20.4717 8.30406C20.4811 8.61802 20.273 8.68515 20.1026 8.68515ZM20.6136 7.82198C20.5001 7.69872 20.3204 7.64258 20.0932 7.64258C19.8945 7.64258 19.7335 7.665 19.6484 7.68743C19.6295 7.68743 19.6105 7.72099 19.6105 7.74342V9.75015C19.6105 9.78372 19.6295 9.80614 19.6578 9.80614H19.9418C19.9701 9.80614 19.989 9.78372 19.989 9.75015V8.99911C20.0174 8.99911 20.0554 8.99911 20.1026 8.99911C20.3298 8.99911 20.5096 8.92055 20.6421 8.76357C20.7368 8.65144 20.784 8.48332 20.784 8.29278C20.784 8.10223 20.7177 7.93411 20.6136 7.82198Z" fill="black"/>
</g>
<g opacity="0.01">
<path d="M21.3801 8.8416C21.2193 8.77433 21.172 8.72948 21.172 8.65106C21.172 8.56136 21.2382 8.50537 21.3329 8.50537C21.4465 8.50537 21.5221 8.55022 21.5599 8.58378C21.5693 8.59492 21.5883 8.59492 21.5978 8.58378C21.6072 8.5725 21.6262 8.56121 21.6262 8.55007L21.683 8.35953C21.6926 8.3371 21.683 8.30339 21.6641 8.29225C21.579 8.23626 21.4559 8.19141 21.3329 8.19141C21.0584 8.19141 20.8597 8.39324 20.8597 8.67349C20.8597 8.81918 20.9259 9.00972 21.2193 9.14428C21.3897 9.22269 21.418 9.27883 21.418 9.35725C21.418 9.45809 21.3517 9.51423 21.2287 9.51423C21.1246 9.51423 21.0206 9.46938 20.9638 9.41339C20.9542 9.40225 20.9353 9.4021 20.9259 9.4021C20.9164 9.41324 20.8976 9.42467 20.8976 9.43581L20.8408 9.65992C20.8314 9.68235 20.8408 9.71606 20.8597 9.7272C20.9544 9.79448 21.0962 9.83933 21.2287 9.83933C21.541 9.83933 21.7398 9.64878 21.7398 9.34611C21.7398 9.11071 21.6262 8.95373 21.3801 8.8416Z" fill="black"/>
</g>
<path d="M14.3381 9.96484H10.6472C10.4864 9.96484 10.316 10.1442 10.316 10.3348V14.8191L12.1898 16.9153H14.3381C14.4989 16.9153 14.6693 16.7359 14.6693 16.5454V10.3348C14.6693 10.1442 14.4989 9.96484 14.3381 9.96484Z" fill="#0EE0B8"/>
<path d="M14.3381 9.96484H10.6472C10.4864 9.96484 10.316 10.1442 10.316 10.3348V14.8191L12.1898 16.9153H14.3381C14.4989 16.9153 14.6693 16.7359 14.6693 16.5454V10.3348C14.6693 10.1442 14.4989 9.96484 14.3381 9.96484Z" fill="#FC9E17"/>
<path d="M14.6692 15.3458V10.3348C14.6692 10.1442 14.4988 9.96484 14.3379 9.96484H10.6471C10.4862 9.96484 10.3443 10.1218 10.3443 10.3012" fill="#D68B1E"/>
<path d="M14.6692 15.3458V10.3348C14.6692 10.1442 14.4989 9.96484 14.3381 9.96484H12.0194" fill="#B57208"/>
<path d="M11.9247 14.8975V16.5678C11.9247 16.5902 11.9437 16.6127 11.9437 16.6351L12.1709 16.8929C12.1898 16.8929 12.2086 16.9153 12.2275 16.9153H13.7133L11.9626 14.8975H11.9247Z" fill="#FFB140"/>
<path d="M11.9247 14.8867V16.5684C11.9247 16.5908 11.9437 16.6131 11.9437 16.6355L12.1709 16.8935C12.1898 16.8935 12.2086 16.9159 12.2275 16.9159H12.9846L12.1235 15.2231L11.9247 14.8867Z" fill="#B57208"/>
<path d="M12.1898 16.9152H12.2087V15.1551C12.2087 14.9646 12.0667 14.7852 11.9058 14.7852L10.316 14.8076L12.1898 16.9152Z" fill="white"/>
<path d="M10.316 14.8076L12.1898 16.9152H12.2087V15.1216" fill="#D2F3FF"/>
<path d="M10.5052 14.8078V10.3348C10.5052 10.1442 10.6186 9.96484 10.7701 9.96484H10.6471C10.4862 9.96484 10.3159 10.1442 10.3159 10.3348V14.8191L10.5052 14.8078Z" fill="#E5A13E"/>
<path d="M13.0024 12.5462C13.0024 12.5648 13.0052 12.5821 13.0111 12.598C13.017 12.6139 13.0253 12.6279 13.0358 12.6398C13.0464 12.6516 13.0588 12.6611 13.0732 12.6681C13.0876 12.6751 13.1034 12.6785 13.1206 12.6785C13.1388 12.6785 13.1552 12.6751 13.1698 12.6681C13.1845 12.6611 13.1973 12.6515 13.2081 12.6393C13.2189 12.6271 13.2271 12.6127 13.233 12.5962C13.2389 12.5798 13.2418 12.5619 13.2418 12.5428C13.2418 12.5242 13.2389 12.5068 13.233 12.4909C13.2271 12.475 13.219 12.4611 13.2085 12.4492C13.1979 12.4373 13.1854 12.428 13.171 12.421C13.1566 12.414 13.1408 12.4104 13.1236 12.4104C13.1054 12.4104 13.0889 12.414 13.0739 12.421C13.059 12.428 13.0464 12.4375 13.0358 12.4497C13.0253 12.4618 13.017 12.4762 13.0111 12.4927C13.0052 12.5092 13.0024 12.527 13.0024 12.5462ZM13.0222 12.9056V13.594C13.0222 13.6271 13.0304 13.6528 13.0469 13.671C13.0633 13.6893 13.0882 13.6984 13.1221 13.6984C13.1559 13.6984 13.181 13.6893 13.1974 13.671C13.2139 13.6528 13.222 13.6271 13.222 13.594V12.9056C13.222 12.8725 13.2139 12.8469 13.1974 12.8287C13.181 12.8104 13.1559 12.8012 13.1221 12.8012C13.0882 12.8012 13.0633 12.8104 13.0469 12.8287C13.0304 12.8469 13.0222 12.8725 13.0222 12.9056ZM12.3996 12.9913H11.9831L12.1209 12.477C12.1304 12.4413 12.1388 12.4081 12.1462 12.3772L12.166 12.2943C12.1726 12.2664 12.1785 12.2404 12.1837 12.216H12.1881C12.1932 12.2404 12.1993 12.2664 12.2067 12.2943L12.2277 12.3772C12.2357 12.4081 12.245 12.4413 12.2553 12.477L12.3996 12.9913ZM11.8409 13.5383L11.9147 13.2693H12.4723L12.5506 13.5396C12.5587 13.5692 12.5662 13.5935 12.5732 13.6127C12.5802 13.6318 12.5891 13.6479 12.6002 13.6609C12.6119 13.6749 12.6262 13.6857 12.6432 13.6936C12.6601 13.7015 12.6791 13.7053 12.7005 13.7053C12.7195 13.7053 12.7391 13.7019 12.7589 13.695C12.7787 13.688 12.7966 13.6777 12.8128 13.6642C12.829 13.6507 12.8422 13.6341 12.8525 13.614C12.8628 13.594 12.868 13.5705 12.868 13.5435C12.868 13.5313 12.8667 13.5182 12.8641 13.5043C12.8614 13.4903 12.8558 13.4686 12.847 13.4391L12.4591 12.1286L12.4404 12.0717C12.4345 12.0548 12.4283 12.0393 12.4216 12.0253C12.415 12.0114 12.4083 11.9989 12.4013 11.9876C12.3943 11.9763 12.3864 11.9653 12.3776 11.955C12.3586 11.9324 12.3349 11.9151 12.3065 11.9034C12.2782 11.8917 12.2431 11.8857 12.2012 11.8857C12.1593 11.8857 12.1244 11.8917 12.096 11.9034C12.0677 11.9151 12.044 11.9324 12.0249 11.955C12.0162 11.9653 12.0083 11.9763 12.0012 11.9876C11.9942 11.9989 11.9876 12.0114 11.9809 12.0253C11.9743 12.0393 11.968 12.0548 11.9621 12.0717L11.9434 12.1286L11.5567 13.4456C11.5486 13.4743 11.5429 13.4956 11.5396 13.5096C11.5364 13.5236 11.5346 13.5374 11.5346 13.5513C11.5346 13.5757 11.5394 13.5974 11.5489 13.6165C11.5584 13.6357 11.571 13.6517 11.5864 13.6648C11.6018 13.6779 11.619 13.688 11.6377 13.695C11.6563 13.7019 11.6753 13.7053 11.6943 13.7053C11.7156 13.7053 11.7345 13.7016 11.7506 13.6942C11.7668 13.6868 11.78 13.677 11.7902 13.6648C11.8013 13.6517 11.8104 13.6351 11.8178 13.6146C11.8252 13.5941 11.8329 13.5687 11.8409 13.5383Z" fill="white"/>
<path d="M82.9039 62.0303V66.6179H8.0047V62.0303H82.9039Z" fill="#F1F2F2"/>
<path d="M12.2599 62.3643V76.0157H8.0047V62.3643H12.2599Z" fill="#F1F2F2"/>
<path d="M82.9026 62.8291V76.4806H78.6475V62.8291H82.9026Z" fill="#F1F2F2"/>
<path d="M28.4312 54.666H36.5805L37.26 62.0606H27.7517L28.4312 54.666Z" fill="#BCBEC0"/>
<path d="M40.3354 61.7916C40.3354 62.0589 39.9693 62.2772 39.5167 62.2772H25.4938C25.0412 62.2772 24.6763 62.0589 24.6763 61.7916V61.6624C24.6763 61.395 25.0412 61.1797 25.4938 61.1797H39.5155C39.9681 61.1797 40.3342 61.395 40.3342 61.6624V61.7916H40.3354Z" fill="#E6E7E8"/>
<path d="M11.1335 51.5322V54.4713C11.1335 55.6015 11.9071 56.1154 12.8599 56.1154H52.1494C53.1035 56.1154 53.877 55.6015 53.877 54.4713V51.5322H11.1335Z" fill="#EDECE9"/>
<path d="M53.877 52.8059V22.5015C53.877 21.3728 53.1034 20.8574 52.1493 20.8574H12.8612C11.9083 20.8574 11.1348 21.3713 11.1348 22.5015V52.8059H53.877Z" fill="#2F292B"/>
<path d="M52.8592 22.4014V51.286H12.1506V22.4014H52.8592Z" fill="#31A499"/>
<path d="M52.8592 22.4014V25.0776H12.1506V22.4014H52.8592Z" fill="#63C8C7"/>
<path d="M14.3617 23.7388C14.3617 24.0744 14.1311 24.3477 13.8477 24.3477C13.5644 24.3477 13.3337 24.0744 13.3337 23.7388C13.3337 23.4032 13.5644 23.1299 13.8477 23.1299C14.1323 23.1299 14.3617 23.4032 14.3617 23.7388Z" fill="#417E8F"/>
<path d="M39.232 26.6299V49.1819H13.3325V26.6299H39.232Z" fill="#42494F"/>
<path d="M39.232 26.6299V27.9264H13.3325V26.6299H39.232Z" fill="#58595B"/>
<path d="M14.9411 27.278C14.9411 27.5008 14.7882 27.6819 14.6001 27.6819C14.412 27.6819 14.2591 27.5008 14.2591 27.278C14.2591 27.0552 14.412 26.874 14.6001 26.874C14.7882 26.874 14.9411 27.0552 14.9411 27.278Z" fill="#E36230"/>
<path d="M15.9001 27.278C15.9001 27.5008 15.7472 27.6819 15.5591 27.6819C15.371 27.6819 15.2181 27.5008 15.2181 27.278C15.2181 27.0552 15.371 26.874 15.5591 26.874C15.7472 26.874 15.9001 27.0537 15.9001 27.2765C15.9001 27.278 15.9001 27.278 15.9001 27.278Z" fill="#F6E19C"/>
<path d="M16.8576 27.278C16.8576 27.5008 16.7046 27.682 16.5166 27.6805C16.3285 27.6805 16.1756 27.4993 16.1768 27.2765C16.1768 27.0537 16.3298 26.8725 16.5178 26.874C16.7046 26.8755 16.8576 27.0552 16.8576 27.278Z" fill="#9BBD2F"/>
<path d="M20.9762 31.4658V31.8817H15.3921V31.4658H20.9762Z" fill="#D7DF23"/>
<path d="M18.5816 33.1523V33.5682H15.3921V33.1523H18.5816Z" fill="#D7DF23"/>
<path d="M20.6917 33.1523V33.5682H19.2662V33.1523H20.6917Z" fill="#F7941E"/>
<path d="M23.6542 34.7734V35.1878H15.3921V34.7734H23.6542Z" fill="#EF4136"/>
<path d="M28.3832 34.7734V35.1878H24.5656V34.7734H28.3832Z" fill="#F7941E"/>
<path d="M20.6918 36.1914V36.6058H16.2461V36.1914H20.6918Z" fill="#D7DF23"/>
<path d="M22.8571 36.1914V36.6058H21.4316V36.1914H22.8571Z" fill="#F7941E"/>
<path d="M29.5805 36.1914V36.6058H23.9963V36.1914H29.5805Z" fill="#EF4136"/>
<path d="M18.1841 37.8789V38.2933H15.3921V37.8789H18.1841Z" fill="#EF4136"/>
<path d="M20.1779 37.8789V38.2933H18.8678V37.8789H20.1779Z" fill="#F7941E"/>
<path d="M29.58 37.8789V38.2933H21.2039V37.8789H29.58Z" fill="#D7DF23"/>
<path d="M16.7875 39.2969V39.7112H15.3921V39.2969H16.7875Z" fill="#F7941E"/>
<path d="M22.8562 39.2969V39.7112H17.6143V39.2969H22.8562Z" fill="#F7941E"/>
<path d="M30.8342 39.2969V39.7112H23.9963V39.2969H30.8342Z" fill="#EF4136"/>
<path d="M20.9762 40.9834V41.3992H15.3921V40.9834H20.9762Z" fill="#D7DF23"/>
<path d="M30.2646 40.9834V41.3992H22.1442V40.9834H30.2646Z" fill="#F7941E"/>
<path d="M51.6466 30.376V48.4992H41.5466V30.376H51.6466Z" fill="#443947"/>
<path d="M51.6464 30.376V31.674H41.4886V30.376H51.6464Z" fill="#58595B"/>
<path d="M43.6755 31.0241C43.6755 31.2468 43.5226 31.4266 43.3345 31.4266C43.1465 31.4266 42.9948 31.2454 42.9948 31.0226C42.9948 30.8013 43.1465 30.6216 43.3345 30.6201C43.5226 30.6216 43.6755 30.8013 43.6755 31.0241Z" fill="#E36230"/>
<path d="M44.6336 31.0241C44.6336 31.2468 44.4807 31.428 44.2926 31.428C44.1046 31.428 43.9516 31.2468 43.9516 31.0241C43.9516 30.8013 44.1033 30.6201 44.2926 30.6201C44.4807 30.6201 44.6336 30.8013 44.6336 31.0241Z" fill="#F6E19C"/>
<path d="M42.6951 31.0241C42.6951 31.2469 42.5421 31.428 42.3541 31.4266C42.166 31.4266 42.013 31.2454 42.0143 31.0226C42.0143 30.7998 42.1672 30.6186 42.3553 30.6201C42.5421 30.6216 42.6951 30.8028 42.6951 31.0241Z" fill="#9BBD2F"/>
<path d="M44.2055 33.8389V34.2547H43.6714V33.8389H44.2055Z" fill="white"/>
<path d="M44.2055 34.9502V35.366H43.6714V34.9502H44.2055Z" fill="white"/>
<path d="M44.2055 35.915V36.3309H43.6714V35.915H44.2055Z" fill="white"/>
<path d="M44.2055 40.2949V40.7108H43.6714V40.2949H44.2055Z" fill="white"/>
<path d="M44.2055 43.6582V44.074H43.6714V43.6582H44.2055Z" fill="white"/>
<path d="M45.4093 37.0449V37.4608H44.8752V37.0449H45.4093Z" fill="white"/>
<path d="M45.4093 38.1562V38.5721H44.8752V38.1562H45.4093Z" fill="white"/>
<path d="M44.8889 41.4922V41.908H44.3573V41.4922H44.8889Z" fill="white"/>
<path d="M44.8889 42.5615V42.9759H44.3573V42.5615H44.8889Z" fill="white"/>
<path d="M45.4093 39.3389V39.7547H44.8752V39.3389H45.4093Z" fill="white"/>
<path d="M46.6892 33.8389V34.2547H44.7384V33.8389H46.6892Z" fill="white"/>
<path d="M47.6007 34.8369V35.2528H44.7384V34.8369H47.6007Z" fill="white"/>
<path d="M48.5084 40.2949V40.7108H44.7384V40.2949H48.5084Z" fill="white"/>
<path d="M47.536 35.915V36.3309H44.6236V35.915H47.536Z" fill="white"/>
<path d="M47.536 43.6582V44.074H44.6236V43.6582H47.536Z" fill="white"/>
<path d="M48.2688 37.0449V37.4608H45.7137V37.0449H48.2688Z" fill="white"/>
<path d="M48.2688 38.2285V38.6429H45.7137V38.2285H48.2688Z" fill="white"/>
<path d="M48.2688 39.3389V39.7547H45.7137V39.3389H48.2688Z" fill="white"/>
<path d="M48.2688 41.4922V41.908H45.7137V41.4922H48.2688Z" fill="white"/>
<path d="M48.2688 42.5615V42.9759H45.7137V42.5615H48.2688Z" fill="white"/>
<path d="M78.8486 60.7161C78.8486 60.878 55.4778 60.878 55.4778 60.7161V46.9726C55.4778 45.7235 55.7486 45.373 56.7353 45.373H77.5911C78.5941 45.373 78.8486 45.8097 78.8486 46.9726V60.7161Z" fill="#F1F2F2"/>
<path d="M54.9946 60.9785C55.0272 61.5503 55.2779 61.9958 55.5851 61.9958H78.739C79.0461 61.9958 79.2969 61.5503 79.3295 60.9785H54.9946Z" fill="#DAD3D6"/>
<path d="M79.3295 60.2529V61.0579H54.9946V60.2529H79.3295Z" fill="#F1F2F2"/>
<path d="M78.652 59.9339C78.652 60.0898 55.6761 60.0898 55.6761 59.9339V47.1987C55.6761 45.9705 55.9419 45.626 56.9123 45.626H77.4158C78.4012 45.626 78.652 46.0552 78.652 47.1987V59.9339Z" fill="#565F66"/>
<path d="M77.616 46.6484V58.8177H56.6963V46.6484H77.616Z" fill="#31A499"/>
<path d="M73.6938 47.416V58.4031H59.9166V47.416H73.6938Z" fill="#F1F2F2"/>
<path d="M73.2716 47.751V58.0668H60.3381V47.751H73.2716Z" fill="#565F66"/>
<path d="M64.4766 50.3428V50.622H61.4526V50.3428H64.4766Z" fill="#27AAE1"/>
<path d="M67.0518 51.2559V51.5351H61.4526V51.2559H67.0518Z" fill="#27AAE1"/>
<path d="M65.9263 52.1338V52.413H61.4529V52.1338H65.9263Z" fill="white"/>
<path d="M68.4877 52.9004V53.1796H61.9156V52.9004H68.4877Z" fill="#00AEEF"/>
<path d="M69.5069 53.8145V54.0937H61.4529V53.8145H69.5069Z" fill="white"/>
<path d="M69.3567 54.583V54.8622H62.6567V54.583H69.3567Z" fill="#00AEEF"/>
<path d="M69.5069 55.4961V55.7753H61.4529V55.4961H69.5069Z" fill="white"/>
<path d="M38.373 29.603C38.1924 29.2318 37.7687 30.013 37.5618 30.6337C37.454 30.4125 37.0252 27.4035 36.9663 26.0966C35.7878 24.613 34.2708 24.4229 32.3626 24.4229C30.2701 24.4229 27.9331 24.7956 26.7258 26.003C26.6581 27.607 26.5189 30.356 26.5214 30.5075C26.3158 29.9105 25.9573 29.2466 25.7817 29.603C25.4783 30.2209 25.0596 31.057 25.5435 32.1976C26.0275 33.3412 26.1804 33.8372 26.5139 33.408C26.5754 33.3189 26.6192 33.2149 26.6418 33.1021C26.6418 33.1021 27.626 36.0813 28.2528 36.9382C28.6741 37.513 29.9817 38.6714 29.9817 38.6714C30.0921 40.0199 30.151 41.7798 30.0432 42.1763C29.8112 43.0095 28.0823 47.3521 28.0823 47.3521C35.4417 47.5941 35.4555 47.3951 36.3143 47.7308C37.0816 48.0293 34.4651 43.1639 34.1968 42.4095C34.0564 42.013 34.0275 39.9828 34.0639 38.5377C34.0639 38.5377 35.2524 37.1892 35.6825 36.5922C36.2128 35.8555 37.4502 33.4139 37.4502 33.4139C37.4753 33.3367 37.5029 33.2654 37.5292 33.1867C37.5518 33.2684 37.5881 33.3441 37.6358 33.4095C37.9705 33.8402 38.121 33.3427 38.6062 32.2006C39.0964 31.057 38.6776 30.2209 38.373 29.603Z" fill="#69411F"/>
<path d="M41.756 58.1799L51.5565 58.0677L51.3811 62.4884L41.6549 60.7279L41.756 58.1799Z" fill="#69411F"/>
<path d="M37.8005 58.6553C37.485 58.6165 37.1718 58.5493 36.8639 58.4542C35.8322 58.117 35.0936 58.4371 35.1117 59.2084L36.1927 59.3236C37.1854 59.6816 38.3391 60.439 39.4188 60.489C40.2742 60.5279 43.9869 61.195 43.9869 61.195L45.052 58.295L41.5583 58.0024L39.4536 54.6456C39.2429 54.3513 38.8408 54.374 38.7805 54.8477L38.3822 54.4158C38.0874 54.0963 37.7405 54.3003 37.6475 54.6988L37.4491 54.4807C37.1411 54.1426 36.7938 54.3235 36.6914 54.7687L35.0207 52.1951C34.7371 52.2751 34.4866 52.7092 34.8971 53.4469L37.8005 58.6553Z" fill="#69411F"/>
<path d="M11.1361 58.3323C11.1361 58.3323 9.89241 60.4115 11.615 62.2056C12.4977 63.1264 13.9232 62.3586 13.9232 62.3586L19.4659 55.6694L16.9672 49.4541L11.1361 58.3323Z" fill="#69411F"/>
<path d="M18.9041 57.0105L25.0474 51.0699L27.931 44.9808L23.9191 40.6738L15.2683 50.6243L18.9041 57.0105Z" fill="white"/>
<path d="M29.3737 45.4079L29.0891 37.1104L35.003 37.1876L35.2299 45.4094L29.3737 45.4079Z" fill="#69411F"/>
<path d="M53.1139 58.3323C53.1139 58.3323 54.3564 60.4115 52.635 62.2056C51.7511 63.1264 50.3256 62.3586 50.3256 62.3586L44.7804 55.6694L47.2791 49.4541L53.1139 58.3323Z" fill="#69411F"/>
<path d="M45.3584 57.0105L39.2151 51.0699L36.3315 44.9808L40.3435 40.6738L48.9942 50.6243L45.3584 57.0105Z" fill="white"/>
<path d="M40.2991 40.6466L35.0334 39.8506C35.0334 39.8506 32.946 40.4239 31.9568 40.4239C30.9638 40.4239 29.2148 39.8506 29.2148 39.8506L23.9542 40.6466L24.6726 45.4273V48.1006L21.8918 53.9892L19.8244 74.2422C19.8244 74.2422 28.1529 74.1649 31.9191 74.2585V74.2659C31.9843 74.2659 32.0546 74.263 32.1235 74.263C32.19 74.263 32.2602 74.2659 32.3254 74.2659V74.2585C36.0966 74.1649 43.7368 74.2659 43.7368 74.2659L42.3602 53.9907" fill="white"/>
<path d="M21.6599 61.0413L11.9319 62.6767L11.784 58.2295L21.5747 58.4781L21.6599 61.0413Z" fill="#69411F"/>
<path d="M25.3174 59.1682C25.6371 59.1334 25.9548 59.07 26.2672 58.9786C27.3141 58.6536 28.0598 58.9844 28.0363 59.7582L26.9411 59.8597C25.9335 60.2061 24.7603 60.9512 23.6667 60.9873C22.8002 61.0153 19.0365 61.6364 19.0365 61.6364L17.9772 58.7125L21.5167 58.4643L23.6702 55.123C23.8854 54.8304 24.2924 54.8584 24.3504 55.3345L24.7566 54.9063C25.0572 54.5895 25.407 54.7988 25.4985 55.1998L25.7008 54.9836C26.0149 54.6483 26.3653 54.8343 26.4661 55.2824L28.1749 52.7214C28.4616 52.8054 28.7124 53.2443 28.2918 53.9792L25.3174 59.1682Z" fill="#69411F"/>
<path d="M37.8867 24.4218C37.7488 23.3094 37.6423 22.1272 36.9088 21.3519C36.1754 20.5767 35.0859 19.8906 34.2923 19.8178C33.4974 19.745 32.4267 19.699 32.4267 19.699C32.4267 19.699 32.3453 19.4777 32.6035 19.2133C32.8643 18.9475 32.527 18.8272 31.9315 19.2133C31.336 19.5995 30.5411 20.0821 30.5411 20.0821C30.5411 20.0821 30.1048 20.4698 30.1838 20.1549C30.2628 19.843 30.8408 18.9668 30.8408 18.9668C30.8408 18.9668 27.9133 20.3718 27.1097 21.4114C25.1827 23.9019 26.0553 28.0039 26.5555 29.795L26.647 33.1024C26.647 33.1024 27.6312 36.0817 28.2581 36.9386C28.6417 37.4614 29.3175 38.302 29.7776 38.5663C30.2553 38.8396 31.3498 38.9688 31.8739 38.9643C32.423 38.9628 33.5777 38.8455 34.0704 38.5366C34.5782 38.2173 35.2589 37.1881 35.689 36.5911C36.2193 35.8544 37.4567 33.4128 37.4567 33.4128L37.458 30.1455C37.5282 29.9762 38.1927 26.8277 37.8867 24.4218Z" fill="#231F20"/>
<path d="M45.9796 76.4813C46.0573 76.3195 46.0987 76.1383 46.1025 75.9541L43.7906 58.211C43.7906 53.3724 41.7207 49.4531 39.1693 49.4531H25.3745C22.8219 49.4531 20.7495 53.3724 20.7495 58.211L18.0502 75.9541C18.0527 76.1398 18.0954 76.3209 18.1731 76.4813H45.9796Z" fill="#C2B59B"/>
<path d="M32.9696 76.385V71.1291C32.9696 70.3137 32.5496 69.6514 32.0293 69.6514C31.5116 69.6514 31.0916 70.3123 31.0916 71.1291V76.385H32.9696Z" fill="#58595B"/>
<path d="M34.6008 64.2842C35.4746 64.2842 36.183 65.2659 36.183 66.4822V68.6074C36.183 69.8223 35.4746 70.807 34.6008 70.807H29.5532C28.6819 70.807 27.9723 69.8223 27.9723 68.6074V66.4822C27.9723 65.2673 28.6806 64.2842 29.5532 64.2842H34.6008Z" fill="#58595B"/>
</g>
</g>
<defs>
<clipPath id="clip0_486_3894">
<rect width="84" height="75" fill="white"/>
</clipPath>
</defs>
</svg>
