<svg width="29" height="30" viewBox="0 0 29 30" fill="none" xmlns="http://www.w3.org/2000/svg">
<path d="M11.1029 15.5098C11.1029 15.5098 11.8201 16.9138 13.5008 17.347C15.1822 17.7794 16.5347 16.9075 16.5347 16.9075M16.1341 12.2863C17.034 11.7577 18.1664 12.1389 18.7761 12.9665M11.0466 10.9771C11.9458 10.4478 13.079 10.8289 13.6887 11.6566" stroke="black" stroke-width="0.375" stroke-linecap="round" stroke-linejoin="round"/>
<path d="M9.24866 7.00029L7.38154 14.1726C6.62125 17.0978 7.61548 19.9008 11.8388 22.1802C16.6842 22.2343 19.0031 20.2841 19.868 17.3856L21.9873 10.2779C21.9873 10.2779 19.4842 8.70123 15.8603 7.76898C12.2358 6.83673 9.2472 7.00029 9.2472 7.00029H9.24866Z" stroke="black" stroke-width="1.13" stroke-linecap="round" stroke-linejoin="round"/>
<path d="M27.7007 15.0631C27.7007 21.56 26.8161 23.0672 21.0992 26.316C15.3846 29.5642 13.6154 29.5642 7.90002 26.316C2.18316 23.0672 1.29932 21.56 1.29932 15.0631C1.29932 8.56613 2.18389 7.05895 7.90075 3.81012C13.6154 0.561992 15.3846 0.561992 21.1 3.81012C26.8168 7.05895 27.7007 8.56613 27.7007 15.0631Z" stroke="black" stroke-width="1.5" stroke-linecap="round" stroke-linejoin="round"/>
</svg>
